<svg width="1899" height="536" viewBox="0 0 1899 536" fill="none" xmlns="http://www.w3.org/2000/svg">
<path d="M295.933 455.492C304.465 463.779 322.263 470.8 322.263 470.8L295.321 366.707C295.321 366.707 285.526 376.171 281.85 383.851C278.244 391.385 276.931 396.951 276.339 405.282C275.534 416.616 277.04 422.89 281.238 433.449C285.06 443.063 288.512 448.283 295.933 455.492Z" fill="#00FF2F"/>
<path d="M337.925 445.181C334.475 456.563 322.263 470.8 322.263 470.8L295.321 366.707C295.321 366.707 308.61 370.745 315.546 375.683C322.35 380.528 326.194 384.761 330.747 391.763C336.941 401.289 338.663 407.507 340.105 418.778C341.418 429.04 340.926 435.279 337.925 445.181Z" fill="#00FF2F"/>
<path d="M339.324 459.548C337.641 466.215 339.271 477.155 339.271 477.155L383.599 433.577C383.599 433.577 376.029 431.409 371.121 431.789C366.307 432.161 363.141 433.113 358.798 435.225C352.891 438.098 350.185 440.665 346.112 445.819C342.404 450.512 340.788 453.749 339.324 459.548Z" fill="#00FF2F"/>
<path d="M356.625 477.592C349.929 479.155 339.271 477.155 339.271 477.155L383.599 433.577C383.599 433.577 385.418 441.398 384.951 446.298C384.492 451.105 383.484 454.254 381.294 458.557C378.315 464.412 375.7 467.071 370.474 471.051C365.715 474.675 362.449 476.232 356.625 477.592Z" fill="#00FF2F"/>
<path d="M80.7228 419.5L79.2228 381.5L117.723 370L133.723 405L80.7228 419.5Z" fill="#00FF2F"/>
<path fill-rule="evenodd" clip-rule="evenodd" d="M165.357 300.789C174.12 333.49 144.551 369.826 99.3132 381.948C54.0758 394.069 10.3003 377.385 1.53796 344.684C-7.22441 311.982 22.3445 275.646 67.5819 263.525C112.819 251.403 156.595 268.087 165.357 300.789ZM73.7583 299.559C73.9715 297.766 76.2647 297.151 77.3461 298.598L95.4179 322.772C97.926 325.537 99.9258 329.148 101.042 333.314C104.011 344.395 99.6024 355.204 91.1947 357.457C82.7871 359.71 73.5643 352.553 70.5951 341.472C69.4791 337.307 69.4054 333.18 70.1946 329.532L73.7583 299.559ZM93.1052 290.873C92.272 289.271 93.8217 287.472 95.5298 288.059L124.073 297.87C127.703 298.744 131.388 300.603 134.655 303.418C143.346 310.906 145.786 322.322 140.104 328.916C134.423 335.511 122.771 334.786 114.08 327.298C110.813 324.483 108.43 321.113 107.029 317.654L93.1052 290.873ZM51.2055 298.636C52.2812 297.141 54.6351 297.772 54.8191 299.605L57.7807 329.111C58.4831 332.736 58.3587 336.85 57.2426 341.015C54.2734 352.096 45.4101 359.349 37.4459 357.215C29.4817 355.081 25.4324 344.368 28.4016 333.287C29.5177 329.122 31.4665 325.497 33.8874 322.709L51.2055 298.636Z" fill="#00FF2F"/>
<path d="M1151.4 368.929L1152.9 330.929L1114.4 319.429L1098.4 354.429L1151.4 368.929Z" fill="#00FF2F"/>
<path fill-rule="evenodd" clip-rule="evenodd" d="M1066.76 250.218C1058 282.919 1087.57 319.256 1132.8 331.377C1178.04 343.498 1221.82 326.815 1230.58 294.113C1239.34 261.411 1209.77 225.075 1164.54 212.954C1119.3 200.833 1075.52 217.516 1066.76 250.218ZM1158.36 248.989C1158.15 247.195 1155.85 246.581 1154.77 248.027L1136.7 272.201C1134.19 274.967 1132.19 278.578 1131.08 282.743C1128.11 293.824 1132.52 304.634 1140.92 306.887C1149.33 309.139 1158.55 301.983 1161.52 290.901C1162.64 286.736 1162.71 282.61 1161.92 278.961L1158.36 248.989ZM1139.01 240.303C1139.85 238.7 1138.3 236.902 1136.59 237.489L1108.04 247.299C1104.42 248.173 1100.73 250.032 1097.46 252.847C1088.77 260.335 1086.33 271.752 1092.01 278.346C1097.7 284.94 1109.35 284.215 1118.04 276.727C1121.3 273.912 1123.69 270.543 1125.09 267.083L1139.01 240.303ZM1180.91 248.066C1179.84 246.57 1177.48 247.201 1177.3 249.034L1174.34 278.54C1173.63 282.165 1173.76 286.279 1174.88 290.444C1177.84 301.525 1186.71 308.779 1194.67 306.645C1202.64 304.511 1206.69 293.798 1203.72 282.716C1202.6 278.551 1200.65 274.927 1198.23 272.138L1180.91 248.066Z" fill="#00FF2F"/>
<path d="M1638.49 342L1637.25 310.874L1668.86 301.454L1681.99 330.123L1638.49 342Z" fill="#00FF2F"/>
<path fill-rule="evenodd" clip-rule="evenodd" d="M1707.96 244.762C1715.15 271.548 1690.88 301.312 1653.75 311.24C1616.61 321.169 1580.68 307.503 1573.49 280.717C1566.29 253.931 1590.56 224.167 1627.7 214.239C1664.83 204.31 1700.77 217.976 1707.96 244.762ZM1632.77 243.755C1632.94 242.286 1634.83 241.783 1635.71 242.968L1650.55 262.769C1652.61 265.034 1654.25 267.992 1655.17 271.404C1657.6 280.481 1653.98 289.335 1647.08 291.18C1640.18 293.025 1632.61 287.163 1630.17 278.086C1629.26 274.675 1629.2 271.295 1629.84 268.306L1632.77 243.755ZM1648.65 236.64C1647.97 235.328 1649.24 233.855 1650.64 234.335L1674.07 242.371C1677.05 243.087 1680.08 244.61 1682.76 246.916C1689.89 253.05 1691.89 262.401 1687.23 267.802C1682.57 273.203 1673 272.61 1665.87 266.476C1663.19 264.17 1661.23 261.41 1660.08 258.576L1648.65 236.64ZM1614.26 242.999C1615.14 241.774 1617.07 242.291 1617.22 243.792L1619.65 267.961C1620.23 270.931 1620.13 274.3 1619.21 277.712C1616.77 286.789 1609.5 292.73 1602.96 290.982C1596.42 289.234 1593.1 280.459 1595.54 271.382C1596.45 267.97 1598.05 265.001 1600.04 262.717L1614.26 242.999Z" fill="#00FF2F"/>
<path d="M1320.01 150L1319.35 133.13L1336.42 128.025L1343.51 143.563L1320.01 150Z" fill="#00FF2F"/>
<path fill-rule="evenodd" clip-rule="evenodd" d="M1357.54 97.2985C1361.43 111.816 1348.32 127.948 1328.26 133.329C1308.2 138.71 1288.79 131.303 1284.9 116.786C1281.02 102.268 1294.13 86.1366 1314.19 80.7554C1334.25 75.3741 1353.66 82.7808 1357.54 97.2985ZM1316.93 96.7529C1317.02 95.9566 1318.04 95.6838 1318.52 96.3261L1326.53 107.058C1327.64 108.286 1328.53 109.889 1329.02 111.738C1330.34 116.657 1328.39 121.456 1324.66 122.456C1320.93 123.457 1316.84 120.279 1315.52 115.36C1315.03 113.511 1315 111.679 1315.35 110.059L1316.93 96.7529ZM1325.5 92.8967C1325.14 92.1853 1325.82 91.3868 1326.58 91.6474L1339.24 96.0028C1340.85 96.3907 1342.48 97.2161 1343.93 98.4658C1347.78 101.79 1348.86 106.858 1346.34 109.786C1343.82 112.713 1338.66 112.392 1334.8 109.067C1333.36 107.818 1332.3 106.322 1331.68 104.786L1325.5 92.8967ZM1306.93 96.3431C1307.4 95.6793 1308.45 95.9593 1308.53 96.7729L1309.84 109.872C1310.15 111.482 1310.1 113.308 1309.6 115.157C1308.29 120.076 1304.36 123.296 1300.83 122.349C1297.29 121.402 1295.5 116.646 1296.82 111.726C1297.31 109.877 1298.17 108.268 1299.25 107.03L1306.93 96.3431Z" fill="#00FF2F"/>
<path d="M242.309 361L241.805 348.169L254.723 344.286L260.092 356.104L242.309 361Z" fill="#00FF2F"/>
<path fill-rule="evenodd" clip-rule="evenodd" d="M270.707 320.917C273.647 331.959 263.725 344.228 248.546 348.32C233.367 352.413 218.679 346.78 215.739 335.738C212.799 324.697 222.72 312.428 237.899 308.335C253.078 304.242 267.767 309.876 270.707 320.917ZM239.972 320.502C240.043 319.897 240.813 319.689 241.176 320.178L247.239 328.34C248.081 329.274 248.752 330.493 249.126 331.899C250.123 335.641 248.643 339.291 245.822 340.051C243.001 340.812 239.907 338.396 238.91 334.654C238.536 333.248 238.511 331.854 238.776 330.622L239.972 320.502ZM246.463 317.569C246.184 317.028 246.704 316.421 247.277 316.619L256.854 319.932C258.072 320.227 259.309 320.855 260.405 321.805C263.321 324.333 264.14 328.188 262.233 330.415C260.327 332.641 256.417 332.396 253.501 329.868C252.405 328.918 251.605 327.78 251.135 326.612L246.463 317.569ZM232.404 320.191C232.765 319.686 233.555 319.899 233.617 320.517L234.611 330.48C234.846 331.704 234.804 333.093 234.43 334.5C233.434 338.241 230.46 340.69 227.787 339.97C225.115 339.249 223.756 335.632 224.753 331.89C225.127 330.484 225.781 329.26 226.593 328.319L232.404 320.191Z" fill="#00FF2F"/>
<path fill-rule="evenodd" clip-rule="evenodd" d="M26.8833 198.188C26.4584 197.211 26.2228 196.133 26.2228 195C26.2228 190.582 29.8044 187 34.2228 187C36.4531 187 38.4703 187.913 39.9213 189.385C42.6931 188.486 45.6512 188 48.7228 188C64.4629 188 77.2228 200.76 77.2228 216.5C77.2228 221.496 75.9373 226.192 73.6788 230.275C74.6495 231.599 75.2228 233.232 75.2228 235C75.2228 239.418 71.6411 243 67.2228 243C65.4552 243 63.8215 242.427 62.4976 241.456C58.4147 243.715 53.7189 245 48.7228 245C32.9827 245 20.2228 232.24 20.2228 216.5C20.2228 209.528 22.7263 203.141 26.8833 198.188ZM65.7228 226C68.7604 226 71.2228 223.538 71.2228 220.5C71.2228 217.462 68.7604 215 65.7228 215C62.6852 215 60.2228 217.462 60.2228 220.5C60.2228 223.538 62.6852 226 65.7228 226Z" fill="#FFBC20"/>
<path d="M233.228 194.996C233.308 200.451 236.803 208.5 236.803 208.5L261.825 166.002C261.825 166.002 255.579 165.895 251.896 167.194C248.283 168.468 246.052 169.847 243.158 172.357C239.221 175.772 237.674 178.295 235.611 183.081C233.733 187.439 233.159 190.251 233.228 194.996Z" fill="#00FF2F"/>
<path d="M250.192 205.271C245.381 207.844 236.803 208.5 236.803 208.5L261.825 166.002C261.825 166.002 264.825 171.622 265.473 175.473C266.108 179.251 265.983 181.871 265.188 185.618C264.108 190.717 262.649 193.292 259.462 197.415C256.559 201.169 254.376 203.033 250.192 205.271Z" fill="#00FF2F"/>
<path d="M245.985 210.384C243.277 212.001 240.258 216.078 240.258 216.078L268.768 216.321C268.768 216.321 267.016 213.163 265.301 211.694C263.619 210.253 262.283 209.535 260.19 208.812C257.342 207.828 255.632 207.783 252.64 208.133C249.915 208.452 248.341 208.978 245.985 210.384Z" fill="#00FF2F"/>
<path d="M245.744 221.847C243.066 220.183 240.258 216.078 240.258 216.078L268.768 216.321C268.768 216.321 266.822 219.447 265.081 220.885C263.373 222.295 262.025 222.989 259.919 223.675C257.054 224.608 255.343 224.622 252.357 224.218C249.639 223.85 248.075 223.296 245.744 221.847Z" fill="#00FF2F"/>
<path d="M419.368 79.7698C426.604 83.8081 439.846 85.3233 439.846 85.3233L402.947 20.1343C402.947 20.1343 398.063 28.2691 396.974 34.1004C395.906 39.8202 396.026 43.8024 397.13 49.5154C398.632 57.2876 400.776 61.2377 405.505 67.5861C409.81 73.3665 413.075 76.2571 419.368 79.7698Z" fill="#00FF2F"/>
<path d="M445.767 65.2595C445.497 73.5411 439.846 85.3233 439.846 85.3233L402.947 20.1343C402.947 20.1343 412.618 20.4554 418.176 22.5282C423.628 24.5614 426.979 26.7168 431.305 30.6078C437.191 35.9012 439.47 39.7748 442.473 47.0993C445.207 53.7684 446.001 58.0556 445.767 65.2595Z" fill="#00FF2F"/>
<path d="M449.299 74.6757C449.368 79.4655 452.437 86.5335 452.437 86.5335L474.409 49.2161C474.409 49.2161 468.925 49.1219 465.69 50.2624C462.518 51.381 460.559 52.5921 458.018 54.7962C454.561 57.7949 453.203 60.0103 451.391 64.2128C449.742 68.0394 449.238 70.5092 449.299 74.6757Z" fill="#00FF2F"/>
<path d="M464.194 83.698C459.97 85.9571 452.437 86.5335 452.437 86.5335L474.409 49.2161C474.409 49.2161 477.044 54.1506 477.613 57.5325C478.171 60.8498 478.06 63.1503 477.363 66.4411C476.414 70.918 475.133 73.179 472.334 76.7995C469.785 80.096 467.868 81.7329 464.194 83.698Z" fill="#00FF2F"/>
<path d="M887.368 193.77C894.604 197.808 907.846 199.323 907.846 199.323L870.947 134.134C870.947 134.134 866.063 142.269 864.974 148.1C863.906 153.82 864.026 157.802 865.13 163.515C866.632 171.288 868.776 175.238 873.505 181.586C877.81 187.367 881.074 190.257 887.368 193.77Z" fill="#00FF2F"/>
<path d="M913.767 179.259C913.497 187.541 907.846 199.323 907.846 199.323L870.947 134.134C870.947 134.134 880.618 134.455 886.176 136.528C891.628 138.561 894.978 140.717 899.305 144.608C905.191 149.901 907.47 153.775 910.473 161.099C913.206 167.768 914.001 172.056 913.767 179.259Z" fill="#00FF2F"/>
<path d="M917.298 188.676C917.368 193.465 920.437 200.534 920.437 200.534L942.409 163.216C942.409 163.216 936.924 163.122 933.69 164.262C930.518 165.381 928.559 166.592 926.017 168.796C922.56 171.795 921.203 174.01 919.391 178.213C917.741 182.039 917.238 184.509 917.298 188.676Z" fill="#00FF2F"/>
<path d="M932.194 197.698C927.97 199.957 920.437 200.534 920.437 200.534L942.409 163.216C942.409 163.216 945.044 168.151 945.613 171.532C946.171 174.85 946.06 177.15 945.363 180.441C944.414 184.918 943.133 187.179 940.334 190.799C937.785 194.096 935.868 195.733 932.194 197.698Z" fill="#00FF2F"/>
<path d="M887.368 193.77C894.604 197.808 907.846 199.323 907.846 199.323L870.947 134.134C870.947 134.134 866.063 142.269 864.974 148.1C863.906 153.82 864.026 157.802 865.13 163.515C866.632 171.288 868.776 175.238 873.505 181.586C877.81 187.367 881.074 190.257 887.368 193.77Z" fill="#00FF2F"/>
<path d="M913.767 179.259C913.497 187.541 907.846 199.323 907.846 199.323L870.947 134.134C870.947 134.134 880.618 134.455 886.176 136.528C891.628 138.561 894.978 140.717 899.305 144.608C905.191 149.901 907.47 153.775 910.473 161.099C913.206 167.768 914.001 172.056 913.767 179.259Z" fill="#00FF2F"/>
<path d="M1064.84 467.466C1075.2 473.248 1094.16 475.418 1094.16 475.418L1041.33 382.079C1041.33 382.079 1034.33 393.726 1032.78 402.076C1031.25 410.265 1031.42 415.967 1033 424.147C1035.15 435.275 1038.22 440.931 1044.99 450.021C1051.15 458.298 1055.83 462.436 1064.84 467.466Z" fill="#00FF2F"/>
<path d="M1102.64 446.69C1102.25 458.548 1094.16 475.418 1094.16 475.418L1041.33 382.079C1041.33 382.079 1055.17 382.538 1063.13 385.506C1070.94 388.417 1075.74 391.504 1081.93 397.075C1090.36 404.654 1093.62 410.2 1097.92 420.688C1101.84 430.237 1102.97 436.375 1102.64 446.69Z" fill="#00FF2F"/>
<path d="M1107.69 460.172C1107.79 467.03 1112.19 477.15 1112.19 477.15L1143.65 423.719C1143.65 423.719 1135.8 423.584 1131.17 425.217C1126.62 426.818 1123.82 428.552 1120.18 431.708C1115.23 436.002 1113.29 439.174 1110.69 445.191C1108.33 450.67 1107.61 454.206 1107.69 460.172Z" fill="#00FF2F"/>
<path d="M1129.02 473.091C1122.97 476.325 1112.19 477.15 1112.19 477.15L1143.65 423.719C1143.65 423.719 1147.42 430.784 1148.24 435.626C1149.03 440.376 1148.88 443.67 1147.88 448.382C1146.52 454.792 1144.69 458.029 1140.68 463.213C1137.03 467.933 1134.28 470.277 1129.02 473.091Z" fill="#00FF2F"/>
<path d="M1064.84 467.466C1075.2 473.248 1094.16 475.418 1094.16 475.418L1041.33 382.079C1041.33 382.079 1034.33 393.726 1032.78 402.076C1031.25 410.265 1031.42 415.967 1033 424.147C1035.15 435.275 1038.22 440.931 1044.99 450.021C1051.15 458.298 1055.83 462.436 1064.84 467.466Z" fill="#00FF2F"/>
<path d="M1102.64 446.69C1102.25 458.548 1094.16 475.418 1094.16 475.418L1041.33 382.079C1041.33 382.079 1055.17 382.538 1063.13 385.506C1070.94 388.417 1075.74 391.504 1081.93 397.075C1090.36 404.654 1093.62 410.2 1097.92 420.688C1101.84 430.237 1102.97 436.375 1102.64 446.69Z" fill="#00FF2F"/>
<path d="M815.015 342.215C817.276 350.186 825.568 360.622 825.568 360.622L845.572 288.435C845.572 288.435 836.366 290.733 831.473 294.086C826.673 297.375 823.942 300.276 820.683 305.096C816.249 311.654 814.973 315.964 813.827 323.796C812.784 330.928 813.049 335.28 815.015 342.215Z" fill="#00FF2F"/>
<path d="M843.942 350.621C837.895 356.286 825.568 360.622 825.568 360.622L845.572 288.435C845.572 288.435 852.183 295.5 854.648 300.896C857.065 306.188 857.91 310.082 858.218 315.892C858.637 323.797 857.51 328.148 854.454 335.45C851.671 342.099 849.201 345.692 843.942 350.621Z" fill="#00FF2F"/>
<path d="M839.781 359.776C836.443 363.212 833.616 370.381 833.616 370.381L875.54 359.53C875.54 359.53 871.728 355.585 868.635 354.104C865.6 352.652 863.359 352.123 860.003 351.885C855.438 351.561 852.912 352.167 848.659 353.858C844.787 355.397 842.684 356.787 839.781 359.776Z" fill="#00FF2F"/>
<path d="M843.934 376.689C839.35 375.299 833.616 370.381 833.616 370.381L875.54 359.53C875.54 359.53 873.913 364.882 871.924 367.675C869.973 370.416 868.268 371.964 865.448 373.798C861.611 376.293 859.107 376.986 854.568 377.567C850.435 378.095 847.922 377.897 843.934 376.689Z" fill="#00FF2F"/>
<path d="M1518.63 151.513C1520.89 159.484 1529.18 169.919 1529.18 169.919L1549.19 97.7325C1549.19 97.7325 1539.98 100.031 1535.09 103.384C1530.29 106.673 1527.56 109.574 1524.3 114.394C1519.86 120.952 1518.59 125.262 1517.44 133.094C1516.4 140.226 1516.66 144.578 1518.63 151.513Z" fill="#00FF2F"/>
<path d="M1547.56 159.919C1541.51 165.584 1529.18 169.919 1529.18 169.919L1549.19 97.7325C1549.19 97.7325 1555.8 104.798 1558.26 110.193C1560.68 115.486 1561.52 119.38 1561.83 125.19C1562.25 133.095 1561.12 137.446 1558.07 144.748C1555.29 151.397 1552.82 154.99 1547.56 159.919Z" fill="#00FF2F"/>
<path d="M1543.4 169.074C1540.06 172.51 1537.23 179.679 1537.23 179.679L1579.15 168.828C1579.15 168.828 1575.34 164.883 1572.25 163.402C1569.21 161.95 1566.97 161.421 1563.62 161.183C1559.05 160.859 1556.53 161.465 1552.27 163.156C1548.4 164.695 1546.3 166.085 1543.4 169.074Z" fill="#00FF2F"/>
<path d="M1547.55 185.987C1542.96 184.597 1537.23 179.679 1537.23 179.679L1579.15 168.828C1579.15 168.828 1577.53 174.18 1575.54 176.973C1573.59 179.714 1571.88 181.262 1569.06 183.096C1565.23 185.591 1562.72 186.284 1558.18 186.865C1554.05 187.393 1551.54 187.195 1547.55 185.987Z" fill="#00FF2F"/>
<path d="M1423.63 411.244C1425.89 403.273 1434.18 392.837 1434.18 392.837L1454.19 465.024C1454.19 465.024 1444.98 462.726 1440.09 459.373C1435.29 456.084 1432.56 453.183 1429.3 448.363C1424.86 441.805 1423.59 437.495 1422.44 429.663C1421.4 422.531 1421.66 418.179 1423.63 411.244Z" fill="#00FF2F"/>
<path d="M1452.56 402.838C1446.51 397.173 1434.18 392.837 1434.18 392.837L1454.19 465.024C1454.19 465.024 1460.8 457.959 1463.26 452.563C1465.68 447.271 1466.52 443.377 1466.83 437.567C1467.25 429.662 1466.12 425.311 1463.07 418.009C1460.29 411.36 1457.82 407.767 1452.56 402.838Z" fill="#00FF2F"/>
<path d="M1448.4 393.683C1445.06 390.247 1442.23 383.078 1442.23 383.078L1484.15 393.929C1484.15 393.929 1480.34 397.874 1477.25 399.355C1474.21 400.807 1471.97 401.336 1468.62 401.574C1464.05 401.898 1461.53 401.292 1457.27 399.601C1453.4 398.062 1451.3 396.672 1448.4 393.683Z" fill="#00FF2F"/>
<path d="M1452.55 376.77C1447.96 378.16 1442.23 383.078 1442.23 383.078L1484.15 393.929C1484.15 393.929 1482.53 388.577 1480.54 385.784C1478.59 383.043 1476.88 381.495 1474.06 379.661C1470.23 377.166 1467.72 376.473 1463.18 375.892C1459.05 375.364 1456.54 375.562 1452.55 376.77Z" fill="#00FF2F"/>
<path d="M1295.63 232.244C1297.89 224.273 1306.18 213.838 1306.18 213.838L1326.19 286.024C1326.19 286.024 1316.98 283.726 1312.09 280.373C1307.29 277.084 1304.56 274.183 1301.3 269.363C1296.86 262.805 1295.59 258.495 1294.44 250.663C1293.4 243.531 1293.66 239.179 1295.63 232.244Z" fill="#00FF2F"/>
<path d="M1324.56 223.838C1318.51 218.173 1306.18 213.838 1306.18 213.838L1326.19 286.024C1326.19 286.024 1332.8 278.959 1335.26 273.564C1337.68 268.271 1338.52 264.377 1338.83 258.567C1339.25 250.662 1338.12 246.311 1335.07 239.009C1332.29 232.36 1329.82 228.767 1324.56 223.838Z" fill="#00FF2F"/>
<path d="M1320.4 214.683C1317.06 211.247 1314.23 204.078 1314.23 204.078L1356.15 214.929C1356.15 214.929 1352.34 218.874 1349.25 220.355C1346.21 221.807 1343.97 222.336 1340.62 222.574C1336.05 222.899 1333.53 222.292 1329.27 220.601C1325.4 219.062 1323.3 217.672 1320.4 214.683Z" fill="#00FF2F"/>
<path d="M1324.55 197.77C1319.96 199.16 1314.23 204.078 1314.23 204.078L1356.15 214.929C1356.15 214.929 1354.53 209.577 1352.54 206.784C1350.59 204.043 1348.88 202.495 1346.06 200.661C1342.23 198.166 1339.72 197.473 1335.18 196.892C1331.05 196.364 1328.54 196.562 1324.55 197.77Z" fill="#00FF2F"/>
<path d="M1685.63 59.2445C1687.89 51.2729 1696.18 40.8376 1696.18 40.8376L1716.19 113.025C1716.19 113.025 1706.98 110.726 1702.09 107.373C1697.29 104.084 1694.56 101.183 1691.3 96.3627C1686.86 89.8048 1685.59 85.4955 1684.44 77.6627C1683.4 70.5309 1683.66 66.1788 1685.63 59.2445Z" fill="#00FF2F"/>
<path d="M1714.56 50.8385C1708.51 45.1728 1696.18 40.8376 1696.18 40.8376L1716.19 113.025C1716.19 113.025 1722.8 105.959 1725.26 100.564C1727.68 95.2708 1728.52 91.3775 1728.83 85.5669C1729.25 77.662 1728.12 73.3111 1725.07 66.0088C1722.29 59.3599 1719.82 55.7668 1714.56 50.8385Z" fill="#00FF2F"/>
<path d="M1710.4 41.6828C1707.06 38.2467 1704.23 31.0785 1704.23 31.0785L1746.15 41.9294C1746.15 41.9294 1742.34 45.8743 1739.25 47.3549C1736.21 48.8071 1733.97 49.3361 1730.62 49.5743C1726.05 49.8985 1723.53 49.2922 1719.27 47.6015C1715.4 46.0621 1713.3 44.6718 1710.4 41.6828Z" fill="#00FF2F"/>
<path d="M1714.55 24.7703C1709.96 26.1598 1704.23 31.0785 1704.23 31.0785L1746.15 41.9294C1746.15 41.9294 1744.53 36.5773 1742.54 33.7837C1740.59 31.0434 1738.88 29.4949 1736.06 27.6612C1732.23 25.1665 1729.72 24.4732 1725.18 23.8925C1721.05 23.3637 1718.54 23.5616 1714.55 24.7703Z" fill="#00FF2F"/>
<path d="M1886.95 385.244C1884.69 377.273 1876.4 366.838 1876.4 366.838L1856.39 439.024C1856.39 439.024 1865.6 436.726 1870.49 433.373C1875.29 430.084 1878.02 427.183 1881.28 422.363C1885.72 415.805 1886.99 411.495 1888.14 403.663C1889.18 396.531 1888.92 392.179 1886.95 385.244Z" fill="#00FF2F"/>
<path d="M1858.02 376.838C1864.07 371.173 1876.4 366.838 1876.4 366.838L1856.39 439.024C1856.39 439.024 1849.78 431.959 1847.32 426.564C1844.9 421.271 1844.06 417.377 1843.75 411.567C1843.33 403.662 1844.46 399.311 1847.51 392.009C1850.29 385.36 1852.76 381.767 1858.02 376.838Z" fill="#00FF2F"/>
<path d="M1862.19 367.683C1865.52 364.247 1868.35 357.078 1868.35 357.078L1826.43 367.929C1826.43 367.929 1830.24 371.874 1833.33 373.355C1836.37 374.807 1838.61 375.336 1841.96 375.574C1846.53 375.899 1849.05 375.292 1853.31 373.601C1857.18 372.062 1859.28 370.672 1862.19 367.683Z" fill="#00FF2F"/>
<path d="M1858.03 350.77C1862.62 352.16 1868.35 357.078 1868.35 357.078L1826.43 367.929C1826.43 367.929 1828.05 362.577 1830.04 359.784C1831.99 357.043 1833.7 355.495 1836.52 353.661C1840.35 351.166 1842.86 350.473 1847.4 349.892C1851.53 349.364 1854.04 349.562 1858.03 350.77Z" fill="#00FF2F"/>
<path fill-rule="evenodd" clip-rule="evenodd" d="M164.883 220.188C164.458 219.211 164.223 218.133 164.223 217C164.223 212.582 167.804 209 172.223 209C174.453 209 176.47 209.913 177.921 211.385C180.693 210.486 183.651 210 186.723 210C202.463 210 215.223 222.76 215.223 238.5C215.223 243.496 213.937 248.192 211.679 252.275C212.65 253.599 213.223 255.232 213.223 257C213.223 261.418 209.641 265 205.223 265C203.455 265 201.822 264.427 200.498 263.456C196.415 265.715 191.719 267 186.723 267C170.983 267 158.223 254.24 158.223 238.5C158.223 231.528 160.726 225.141 164.883 220.188ZM203.723 248C206.76 248 209.223 245.538 209.223 242.5C209.223 239.462 206.76 237 203.723 237C200.685 237 198.223 239.462 198.223 242.5C198.223 245.538 200.685 248 203.723 248Z" fill="#FFBC20"/>
<path fill-rule="evenodd" clip-rule="evenodd" d="M469.264 250.65C469.892 249.063 470.848 247.575 472.133 246.29C477.142 241.28 485.247 241.263 490.234 246.251C492.752 248.768 493.995 252.081 493.963 255.388C498.112 257.497 502.002 260.286 505.469 263.753C523.238 281.522 523.176 310.394 505.329 328.24C499.665 333.905 492.889 337.778 485.711 339.858C485.305 342.455 484.1 344.954 482.096 346.958C477.086 351.968 468.982 351.985 463.994 346.997C461.999 345.002 460.805 342.508 460.411 339.913C453.241 337.864 446.482 334.021 440.842 328.381C423.074 310.612 423.136 281.74 440.983 263.894C448.887 255.989 458.956 251.573 469.264 250.65ZM481.576 326.029C485.005 329.458 490.577 329.446 494.021 326.002C497.465 322.558 497.477 316.986 494.048 313.557C490.619 310.128 485.047 310.14 481.603 313.584C478.159 317.028 478.147 322.6 481.576 326.029Z" fill="#FFBC20"/>
<path fill-rule="evenodd" clip-rule="evenodd" d="M701.206 103.491C700.146 102.153 699.335 100.581 698.865 98.8259C697.031 91.9827 701.068 84.9554 707.881 83.1298C711.321 82.2082 714.81 82.7883 717.659 84.4691C721.56 81.9311 725.92 79.9563 730.657 78.6871C754.929 72.1833 779.902 86.6735 786.434 111.052C788.507 118.79 788.474 126.594 786.685 133.851C788.732 135.5 790.294 137.794 791.027 140.531C792.861 147.375 788.824 154.402 782.01 156.228C779.285 156.958 776.528 156.745 774.083 155.789C768.724 160.974 762.016 164.905 754.312 166.969C730.039 173.473 705.067 158.983 698.535 134.605C695.641 123.806 696.851 112.879 701.206 103.491ZM772.642 130.518C777.327 129.262 780.102 124.431 778.841 119.726C777.581 115.022 772.762 112.225 768.077 113.481C763.393 114.736 760.618 119.567 761.878 124.272C763.139 128.976 767.958 131.773 772.642 130.518Z" fill="#FFBC20"/>
<path fill-rule="evenodd" clip-rule="evenodd" d="M1505.28 241.129C1506.34 239.791 1507.15 238.219 1507.62 236.464C1509.45 229.621 1505.42 222.593 1498.6 220.768C1495.16 219.846 1491.67 220.426 1488.83 222.107C1484.92 219.569 1480.56 217.594 1475.83 216.325C1451.55 209.821 1426.58 224.311 1420.05 248.69C1417.98 256.428 1418.01 264.232 1419.8 271.489C1417.75 273.138 1416.19 275.432 1415.46 278.169C1413.62 285.013 1417.66 292.04 1424.47 293.866C1427.2 294.596 1429.96 294.383 1432.4 293.427C1437.76 298.612 1444.47 302.543 1452.17 304.607C1476.45 311.111 1501.42 296.621 1507.95 272.243C1510.84 261.444 1509.63 250.517 1505.28 241.129ZM1433.84 268.156C1429.16 266.9 1426.38 262.069 1427.64 257.364C1428.9 252.66 1433.72 249.863 1438.41 251.119C1443.09 252.374 1445.87 257.205 1444.61 261.91C1443.35 266.614 1438.53 269.411 1433.84 268.156Z" fill="#FFBC20"/>
<path fill-rule="evenodd" clip-rule="evenodd" d="M1622.65 408.825C1621.08 408.147 1619.35 407.771 1617.54 407.771C1610.45 407.771 1604.71 413.489 1604.71 420.543C1604.71 424.103 1606.17 427.324 1608.53 429.64C1607.09 434.065 1606.31 438.788 1606.31 443.692C1606.31 468.821 1626.77 489.192 1652.01 489.192C1660.02 489.192 1667.55 487.139 1674.1 483.534C1676.22 485.084 1678.84 485.999 1681.67 485.999C1688.76 485.999 1694.5 480.281 1694.5 473.227C1694.5 470.405 1693.58 467.797 1692.02 465.683C1695.65 459.165 1697.71 451.668 1697.71 443.692C1697.71 418.563 1677.25 398.192 1652.01 398.192C1640.83 398.192 1630.59 402.189 1622.65 408.825ZM1667.24 470.832C1667.24 475.682 1663.29 479.613 1658.42 479.613C1653.55 479.613 1649.6 475.682 1649.6 470.832C1649.6 465.983 1653.55 462.051 1658.42 462.051C1663.29 462.051 1667.24 465.983 1667.24 470.832Z" fill="#FFBC20"/>
<path fill-rule="evenodd" clip-rule="evenodd" d="M999.137 38.1287C998.076 36.7914 997.266 35.2189 996.795 33.4638C994.962 26.6206 998.998 19.5934 1005.81 17.7677C1009.25 16.8461 1012.74 17.4262 1015.59 19.107C1019.49 16.569 1023.85 14.5942 1028.59 13.3251C1052.86 6.82123 1077.83 21.3115 1084.36 45.69C1086.44 53.428 1086.4 61.2321 1084.62 68.4889C1086.66 70.1384 1088.22 72.4317 1088.96 75.1694C1090.79 82.0126 1086.75 89.0398 1079.94 90.8655C1077.22 91.5959 1074.46 91.3831 1072.01 90.4267C1066.65 95.6116 1059.95 99.543 1052.24 101.607C1027.97 108.111 1003 93.621 996.465 69.2425C993.572 58.4443 994.782 47.517 999.137 38.1287ZM1070.57 65.1555C1075.26 63.9004 1078.03 59.0691 1076.77 54.3644C1075.51 49.6598 1070.69 46.8634 1066.01 48.1186C1061.32 49.3737 1058.55 54.205 1059.81 58.9096C1061.07 63.6143 1065.89 66.4106 1070.57 65.1555Z" fill="#FFBC20"/>
<path fill-rule="evenodd" clip-rule="evenodd" d="M1236.14 359.129C1235.08 357.791 1234.27 356.219 1233.8 354.464C1231.96 347.621 1236 340.593 1242.81 338.768C1246.25 337.846 1249.74 338.426 1252.59 340.107C1256.49 337.569 1260.85 335.594 1265.59 334.325C1289.86 327.821 1314.83 342.311 1321.36 366.69C1323.44 374.428 1323.4 382.232 1321.62 389.489C1323.66 391.138 1325.22 393.432 1325.96 396.169C1327.79 403.013 1323.75 410.04 1316.94 411.865C1314.22 412.596 1311.46 412.383 1309.01 411.427C1303.65 416.612 1296.95 420.543 1289.24 422.607C1264.97 429.111 1240 414.621 1233.47 390.242C1230.57 379.444 1231.78 368.517 1236.14 359.129ZM1307.57 386.155C1312.26 384.9 1315.03 380.069 1313.77 375.364C1312.51 370.66 1307.69 367.863 1303.01 369.119C1298.32 370.374 1295.55 375.205 1296.81 379.91C1298.07 384.614 1302.89 387.411 1307.57 386.155Z" fill="#FFBC20"/>
<path d="M368.978 108.531C370.268 109.783 372.975 110.825 372.975 110.825L369.036 94.9659C369.036 94.9659 367.523 96.4287 366.949 97.6085C366.385 98.7658 366.175 99.6185 366.07 100.892C365.928 102.626 366.147 103.582 366.77 105.188C367.338 106.65 367.856 107.442 368.978 108.531Z" fill="#FF3395"/>
<path d="M375.412 106.884C374.865 108.629 372.975 110.825 372.975 110.825L369.036 94.9659C369.036 94.9659 371.06 95.5601 372.111 96.303C373.142 97.0316 373.723 97.6718 374.406 98.734C375.337 100.179 375.589 101.126 375.79 102.846C375.973 104.412 375.887 105.366 375.412 106.884Z" fill="#FF3395"/>
<path d="M400.155 97.0089C400.141 96.7642 400.037 96.5333 399.864 96.3601C399.691 96.1868 399.46 96.0832 399.215 96.0689C389.699 95.5101 382.077 98.3751 378.827 103.75C377.7 105.589 377.145 107.721 377.232 109.875C377.288 111.253 377.568 112.612 378.062 113.9C378.091 113.979 378.139 114.05 378.203 114.105C378.266 114.161 378.343 114.199 378.425 114.217C378.508 114.235 378.594 114.232 378.674 114.207C378.755 114.183 378.829 114.139 378.888 114.079L389.513 103.291C389.606 103.198 389.716 103.125 389.837 103.074C389.959 103.024 390.089 102.998 390.22 102.998C390.352 102.998 390.482 103.024 390.603 103.074C390.725 103.125 390.835 103.198 390.928 103.291C391.021 103.384 391.094 103.495 391.145 103.616C391.195 103.737 391.221 103.867 391.221 103.999C391.221 104.13 391.195 104.26 391.145 104.382C391.094 104.503 391.021 104.613 390.928 104.706L379.317 116.493L377.543 118.266C377.358 118.446 377.248 118.688 377.234 118.945C377.22 119.203 377.304 119.455 377.468 119.654C377.558 119.758 377.668 119.842 377.792 119.902C377.916 119.961 378.051 119.995 378.188 120C378.325 120.005 378.462 119.981 378.59 119.931C378.718 119.881 378.834 119.805 378.932 119.708L381.03 117.609C382.798 118.464 384.582 118.93 386.35 118.993C386.489 118.998 386.628 119 386.767 119C388.781 119.005 390.757 118.45 392.474 117.398C397.849 114.148 400.715 106.526 400.155 97.0089Z" fill="#FF3395"/>
<path fill-rule="evenodd" clip-rule="evenodd" d="M337.077 198.475C364.611 212.572 396.209 205.879 407.654 183.525C419.099 161.171 406.056 131.621 378.523 117.525C350.989 103.428 319.39 110.121 307.946 132.475C296.501 154.829 309.543 184.379 337.077 198.475ZM373.723 188C378.417 188 382.223 184.194 382.223 179.5C382.223 174.806 378.417 171 373.723 171C369.028 171 365.223 174.806 365.223 179.5C365.223 184.194 369.028 188 373.723 188Z" fill="#FF3395"/>
<path d="M567.301 341.369C570.337 341.324 574.817 339.335 574.817 339.335L551.165 325.094C551.165 325.094 551.105 328.649 551.828 330.745C552.537 332.801 553.304 334.071 554.701 335.718C556.602 337.959 558.006 338.839 560.67 340.013C563.095 341.082 564.661 341.409 567.301 341.369Z" fill="#FF3395"/>
<path d="M573.02 331.715C574.452 334.453 574.817 339.335 574.817 339.335L551.165 325.094C551.165 325.094 554.292 323.387 556.436 323.018C558.538 322.656 559.996 322.728 562.082 323.18C564.92 323.795 566.353 324.625 568.647 326.439C570.737 328.091 571.774 329.334 573.02 331.715Z" fill="#FF3395"/>
<path d="M590.783 290.357C590.474 290.082 590.074 289.93 589.66 289.93C589.246 289.93 588.847 290.082 588.537 290.357C576.501 301.058 570.817 313.588 573.356 323.892C574.206 327.434 576.09 330.644 578.768 333.115C580.481 334.693 582.44 335.983 584.568 336.932C584.697 336.992 584.84 337.018 584.982 337.009C585.124 336.999 585.261 336.953 585.381 336.876C585.501 336.799 585.6 336.693 585.667 336.567C585.735 336.442 585.77 336.301 585.769 336.158L585.574 310.577C585.574 310.355 585.618 310.135 585.703 309.93C585.788 309.725 585.913 309.539 586.07 309.382C586.227 309.225 586.413 309.1 586.618 309.015C586.823 308.93 587.043 308.887 587.265 308.887C587.487 308.887 587.707 308.93 587.912 309.015C588.117 309.1 588.303 309.225 588.46 309.382C588.617 309.539 588.742 309.725 588.827 309.93C588.912 310.135 588.955 310.355 588.955 310.577L589.164 338.53V342.768C589.159 343.203 589.317 343.624 589.607 343.948C589.898 344.272 590.299 344.474 590.733 344.515C590.964 344.532 591.197 344.501 591.416 344.424C591.635 344.347 591.836 344.226 592.006 344.068C592.176 343.91 592.312 343.719 592.405 343.506C592.497 343.293 592.545 343.063 592.545 342.831L592.545 337.816C595.679 336.726 598.367 335.152 600.554 333.114C600.727 332.953 600.895 332.79 601.061 332.625C603.473 330.225 605.171 327.201 605.965 323.892C608.504 313.588 602.823 301.058 590.783 290.357Z" fill="#FF3395"/>
<path fill-rule="evenodd" clip-rule="evenodd" d="M636.646 486.937C686.381 470.884 716.135 425.137 703.102 384.758C690.069 344.378 639.184 324.658 589.449 340.711C539.713 356.765 509.96 402.512 522.993 442.891C536.026 483.27 586.91 502.991 636.646 486.937ZM667.911 430.642C673.519 425.034 673.519 415.941 667.911 410.332C662.302 404.724 653.21 404.724 647.601 410.332C641.993 415.941 641.993 425.034 647.601 430.642C653.21 436.251 662.302 436.251 667.911 430.642Z" fill="#FF3395"/>
<path d="M979.451 249.371C979.77 250.495 980.956 251.962 980.956 251.962L983.893 241.752C983.893 241.752 982.566 242.084 981.859 242.561C981.165 243.03 980.77 243.441 980.297 244.125C979.653 245.054 979.466 245.664 979.295 246.771C979.139 247.779 979.173 248.393 979.451 249.371Z" fill="#FF3395"/>
<path d="M983.609 250.535C982.734 251.34 980.956 251.962 980.956 251.962L983.893 241.752C983.893 241.752 984.84 242.744 985.19 243.504C985.534 244.25 985.653 244.799 985.692 245.619C985.746 246.735 985.581 247.351 985.135 248.384C984.729 249.326 984.37 249.835 983.609 250.535Z" fill="#FF3395"/>
<path d="M1000.75 253.019C1000.82 252.876 1000.84 252.713 1000.8 252.559C1000.76 252.405 1000.66 252.271 1000.53 252.184C995.351 248.776 990.128 247.911 986.551 249.881C985.319 250.55 984.313 251.57 983.661 252.811C983.245 253.605 982.961 254.462 982.82 255.347C982.811 255.401 982.815 255.457 982.833 255.509C982.851 255.561 982.881 255.607 982.922 255.644C982.963 255.681 983.012 255.707 983.065 255.72C983.119 255.732 983.174 255.731 983.227 255.717L992.717 253.096C992.799 253.074 992.885 253.069 992.97 253.08C993.055 253.091 993.136 253.119 993.21 253.161C993.284 253.204 993.349 253.261 993.401 253.329C993.453 253.397 993.491 253.474 993.514 253.556C993.536 253.639 993.541 253.725 993.53 253.81C993.519 253.894 993.491 253.976 993.449 254.05C993.406 254.124 993.349 254.189 993.281 254.241C993.213 254.293 993.136 254.331 993.054 254.353L982.684 257.215L981.109 257.637C980.946 257.678 980.806 257.779 980.714 257.919C980.623 258.059 980.587 258.229 980.615 258.394C980.632 258.482 980.667 258.565 980.717 258.639C980.768 258.713 980.833 258.775 980.908 258.823C980.984 258.87 981.069 258.902 981.157 258.915C981.246 258.928 981.336 258.923 981.422 258.9L983.286 258.401C984.003 259.457 984.856 260.299 985.832 260.909C985.909 260.957 985.986 261.004 986.064 261.049C987.196 261.707 988.489 262.037 989.798 262.002C993.881 261.919 997.973 258.56 1000.75 253.019Z" fill="#FF3395"/>
<path fill-rule="evenodd" clip-rule="evenodd" d="M932.248 289.646C943.169 306.534 963.137 313.037 976.849 304.171C990.56 295.305 992.822 274.426 981.901 257.538C970.981 240.65 951.012 234.146 937.301 243.013C923.59 251.879 921.328 272.757 932.248 289.646ZM956.288 295.66C958.931 297.186 962.311 296.281 963.837 293.637C965.363 290.994 964.458 287.614 961.815 286.088C959.171 284.562 955.791 285.468 954.265 288.111C952.739 290.754 953.645 294.134 956.288 295.66Z" fill="#FF3395"/>
<path d="M1797.02 133.398C1798.67 134.317 1801.7 134.639 1801.7 134.639L1793.4 119.623C1793.4 119.623 1792.26 121.518 1792 122.871C1791.74 124.198 1791.76 125.12 1792 126.441C1792.32 128.238 1792.81 129.148 1793.88 130.607C1794.85 131.937 1795.59 132.599 1797.02 133.398Z" fill="#FF3395"/>
<path d="M1803.1 129.979C1803.02 131.898 1801.7 134.639 1801.7 134.639L1793.4 119.623C1793.4 119.623 1795.61 119.676 1796.88 120.144C1798.12 120.603 1798.89 121.094 1799.87 121.986C1801.2 123.199 1801.72 124.091 1802.39 125.78C1803 127.319 1803.17 128.31 1803.1 129.979Z" fill="#FF3395"/>
<path d="M1825.52 113.238C1825.43 112.994 1825.27 112.788 1825.04 112.659C1824.82 112.53 1824.56 112.488 1824.31 112.54C1814.5 114.56 1807.55 119.537 1805.71 125.872C1805.07 128.044 1805.09 130.357 1805.76 132.519C1806.19 133.901 1806.85 135.203 1807.7 136.376C1807.75 136.448 1807.82 136.507 1807.9 136.545C1807.98 136.584 1808.06 136.603 1808.15 136.598C1808.24 136.594 1808.33 136.567 1808.4 136.521C1808.48 136.474 1808.54 136.409 1808.58 136.332L1816.43 122.503C1816.5 122.383 1816.59 122.279 1816.7 122.195C1816.81 122.111 1816.93 122.049 1817.07 122.013C1817.2 121.978 1817.34 121.968 1817.48 121.986C1817.61 122.005 1817.74 122.049 1817.86 122.118C1817.98 122.187 1818.09 122.279 1818.17 122.389C1818.26 122.498 1818.32 122.623 1818.35 122.756C1818.39 122.89 1818.4 123.029 1818.38 123.165C1818.36 123.302 1818.32 123.434 1818.25 123.554L1809.67 138.664L1808.36 140.945C1808.22 141.178 1808.17 141.453 1808.23 141.718C1808.28 141.982 1808.44 142.216 1808.66 142.373C1808.78 142.454 1808.91 142.51 1809.05 142.536C1809.2 142.563 1809.34 142.56 1809.48 142.528C1809.62 142.496 1809.76 142.435 1809.87 142.349C1809.99 142.263 1810.09 142.155 1810.16 142.03L1811.72 139.331C1813.74 139.717 1815.68 139.706 1817.49 139.288C1817.63 139.255 1817.77 139.22 1817.91 139.183C1819.96 138.64 1821.81 137.541 1823.27 136.006C1827.83 131.249 1828.67 122.739 1825.52 113.238Z" fill="#FF3395"/>
<path fill-rule="evenodd" clip-rule="evenodd" d="M1789.11 233.3C1820.87 240.115 1851.1 224.738 1856.64 198.953C1862.17 173.169 1840.91 146.742 1809.15 139.927C1777.39 133.111 1747.16 148.489 1741.63 174.273C1736.09 200.057 1757.35 226.484 1789.11 233.3ZM1823.43 212.715C1828.2 211.439 1831.02 206.545 1829.75 201.783C1828.47 197.021 1823.58 194.196 1818.81 195.472C1814.05 196.747 1811.23 201.642 1812.5 206.403C1813.78 211.165 1818.67 213.991 1823.43 212.715Z" fill="#FF3395"/>
<path fill-rule="evenodd" clip-rule="evenodd" d="M568.515 184.787C568.515 175.55 578.515 169.776 586.515 174.395L636.387 203.188C642.765 206.871 644.312 215.345 639.295 220.737C632.426 228.118 622.78 237.523 614.111 242.529C605.413 247.55 592.268 251.278 582.323 253.596C575.124 255.274 568.515 249.69 568.515 242.298L568.515 184.787ZM577.83 204.644C578.688 204.185 580.22 204.067 580.22 204.067C580.22 204.067 580.844 205.505 580.858 206.478C580.87 207.325 580.768 207.828 580.433 208.606C580.064 209.46 579.788 209.91 579.085 210.52C578.569 210.968 578.17 211.215 577.525 211.442C576.868 211.674 575.753 211.655 575.753 211.655C575.753 211.655 575.217 210.651 575.101 209.964C574.988 209.289 575.01 208.822 575.152 208.153C575.345 207.242 575.605 206.783 576.175 206.047C576.693 205.376 577.083 205.044 577.83 204.644ZM596.084 199C596.084 199 595.853 197.45 596.092 196.506C596.299 195.685 596.528 195.226 597.053 194.561C597.63 193.831 598.013 193.468 598.85 193.061C599.465 192.762 599.914 192.627 600.595 192.574C601.291 192.52 602.363 192.827 602.363 192.827C602.363 192.827 602.621 193.935 602.554 194.629C602.489 195.31 602.347 195.756 602.036 196.366C601.614 197.195 601.244 197.572 600.504 198.135C599.83 198.649 599.367 198.869 598.542 199.062C597.594 199.283 596.084 199 596.084 199ZM596.728 219.314C596.993 220.251 597.968 221.477 597.968 221.477C597.968 221.477 599.417 220.968 600.128 220.302C600.746 219.723 601.036 219.3 601.363 218.519C601.723 217.66 601.855 217.149 601.806 216.22C601.77 215.537 601.67 215.079 601.386 214.457C601.096 213.823 600.319 212.992 600.319 212.992C600.319 212.992 599.237 213.263 598.662 213.657C598.098 214.043 597.777 214.384 597.394 214.951C596.873 215.722 596.723 216.228 596.588 217.149C596.465 217.987 596.497 218.499 596.728 219.314ZM621.619 205.919C621.619 205.919 620.182 206.543 619.208 206.557C618.361 206.57 617.859 206.467 617.081 206.132C616.226 205.763 615.776 205.487 615.166 204.784C614.718 204.268 614.472 203.87 614.245 203.225C614.013 202.567 614.032 201.452 614.032 201.452C614.032 201.452 615.035 200.916 615.723 200.801C616.397 200.687 616.865 200.71 617.534 200.851C618.444 201.044 618.904 201.305 619.64 201.874C620.31 202.392 620.643 202.782 621.043 203.529C621.502 204.388 621.619 205.919 621.619 205.919ZM579.822 231.178C580.796 231.163 582.233 230.539 582.233 230.539C582.233 230.539 582.116 229.008 581.656 228.149C581.257 227.402 580.924 227.012 580.254 226.494C579.518 225.925 579.058 225.665 578.148 225.472C577.479 225.33 577.011 225.307 576.336 225.421C575.649 225.537 574.646 226.072 574.646 226.072C574.646 226.072 574.626 227.187 574.858 227.845C575.086 228.49 575.332 228.888 575.78 229.405C576.39 230.108 576.84 230.384 577.695 230.752C578.473 231.088 578.975 231.19 579.822 231.178ZM585.475 187.292C585.475 187.292 584.038 187.916 583.064 187.93C582.217 187.942 581.714 187.84 580.936 187.504C580.082 187.136 579.632 186.86 579.022 186.157C578.574 185.64 578.328 185.242 578.1 184.597C577.868 183.94 577.887 182.824 577.887 182.824C577.887 182.824 578.891 182.289 579.578 182.173C580.253 182.06 580.72 182.082 581.39 182.224C582.3 182.417 582.759 182.677 583.496 183.246C584.166 183.765 584.499 184.154 584.898 184.901C585.357 185.76 585.475 187.292 585.475 187.292Z" fill="#FF5050"/>
<path fill-rule="evenodd" clip-rule="evenodd" d="M134.866 68.7992C134.866 61.6583 142.597 57.1952 148.781 60.7657L187.333 83.0235C192.264 85.8704 193.459 92.421 189.581 96.5892C184.271 102.295 176.815 109.565 170.113 113.434C163.389 117.316 153.228 120.198 145.54 121.99C139.976 123.287 134.866 118.97 134.866 113.256L134.866 68.7992ZM142.067 84.1489C142.731 83.7938 143.915 83.7032 143.915 83.7032C143.915 83.7032 144.397 84.8141 144.408 85.5669C144.417 86.2217 144.338 86.6099 144.079 87.2113C143.794 87.8718 143.581 88.22 143.038 88.6913C142.638 89.0377 142.33 89.228 141.832 89.4038C141.323 89.5831 140.461 89.5683 140.461 89.5683C140.461 89.5683 140.047 88.7928 139.958 88.2612C139.87 87.7399 139.887 87.3783 139.997 86.8611C140.146 86.1575 140.348 85.8021 140.787 85.2331C141.188 84.715 141.489 84.4577 142.067 84.1489ZM156.178 79.7859C156.178 79.7859 155.999 78.588 156.184 77.858C156.344 77.223 156.521 76.8686 156.927 76.3548C157.373 75.7905 157.669 75.5094 158.316 75.1948C158.791 74.9635 159.138 74.8594 159.665 74.8186C160.203 74.777 161.031 75.0144 161.031 75.0144C161.031 75.0144 161.231 75.8707 161.18 76.4072C161.129 76.9335 161.019 77.2783 160.779 77.7495C160.453 78.3906 160.167 78.6817 159.594 79.1175C159.073 79.5142 158.716 79.6848 158.078 79.8336C157.345 80.0048 156.178 79.7859 156.178 79.7859ZM156.675 95.489C156.881 96.2133 157.634 97.1614 157.634 97.1614C157.634 97.1614 158.754 96.7675 159.304 96.2527C159.782 95.8049 160.006 95.4785 160.259 94.8743C160.537 94.2108 160.639 93.8155 160.601 93.0973C160.573 92.5693 160.496 92.2156 160.276 91.7347C160.053 91.2444 159.452 90.6024 159.452 90.6024C159.452 90.6024 158.615 90.8113 158.171 91.116C157.735 91.4148 157.487 91.6784 157.19 92.1164C156.788 92.7122 156.672 93.1038 156.567 93.8155C156.473 94.4635 156.497 94.8589 156.675 95.489ZM175.917 85.1345C175.917 85.1345 174.806 85.6169 174.053 85.6278C173.398 85.6374 173.01 85.5582 172.409 85.299C171.748 85.0142 171.4 84.8008 170.929 84.2575C170.583 83.8581 170.392 83.5502 170.216 83.0516C170.037 82.5433 170.052 81.6812 170.052 81.6812C170.052 81.6812 170.827 81.2672 171.359 81.1778C171.88 81.0901 172.242 81.1075 172.759 81.2171C173.463 81.3662 173.818 81.5675 174.387 82.0074C174.905 82.408 175.162 82.7093 175.471 83.2868C175.826 83.9507 175.917 85.1345 175.917 85.1345ZM143.607 104.66C144.36 104.649 145.471 104.167 145.471 104.167C145.471 104.167 145.38 102.983 145.025 102.319C144.716 101.741 144.459 101.44 143.941 101.04C143.372 100.6 143.016 100.398 142.313 100.249C141.795 100.14 141.434 100.122 140.913 100.21C140.381 100.299 139.605 100.713 139.605 100.713C139.605 100.713 139.591 101.575 139.77 102.084C139.946 102.582 140.136 102.89 140.482 103.29C140.954 103.833 141.302 104.046 141.962 104.331C142.564 104.59 142.952 104.669 143.607 104.66ZM147.977 70.7351C147.977 70.7351 146.866 71.2175 146.113 71.2285C145.458 71.238 145.07 71.1588 144.468 70.8996C143.808 70.6149 143.46 70.4014 142.989 69.8581C142.642 69.4587 142.452 69.1508 142.276 68.6522C142.097 68.1439 142.111 67.2819 142.111 67.2819C142.111 67.2819 142.887 66.8678 143.419 66.7784C143.94 66.6907 144.301 66.7081 144.819 66.8177C145.522 66.9668 145.878 67.1681 146.447 67.608C146.965 68.0086 147.222 68.3099 147.531 68.8874C147.886 69.5513 147.977 70.7351 147.977 70.7351Z" fill="#FF5050"/>
<path fill-rule="evenodd" clip-rule="evenodd" d="M1180.61 106.875C1187.51 105.026 1193.82 111.338 1191.97 118.236L1180.45 161.235C1178.98 166.734 1172.96 169.585 1167.93 166.917C1161.05 163.265 1152.09 157.945 1146.62 152.473C1141.13 146.983 1135.72 137.913 1132 130.951C1129.3 125.912 1132.15 119.86 1137.67 118.381L1180.61 106.875ZM1167.65 117.802C1168.16 118.352 1168.56 119.472 1168.56 119.472C1168.56 119.472 1167.61 120.225 1166.89 120.431C1166.26 120.609 1165.86 120.633 1165.21 120.539C1164.5 120.435 1164.11 120.319 1163.51 119.916C1163.08 119.62 1162.81 119.372 1162.51 118.935C1162.21 118.491 1162 117.654 1162 117.654C1162 117.654 1162.64 117.054 1163.13 116.83C1163.61 116.61 1163.97 116.533 1164.49 116.505C1165.21 116.467 1165.61 116.57 1166.27 116.847C1166.88 117.1 1167.2 117.325 1167.65 117.802ZM1175.52 130.304C1175.52 130.304 1176.63 129.821 1177.38 129.81C1178.03 129.801 1178.42 129.88 1179.02 130.139C1179.68 130.424 1180.03 130.637 1180.5 131.181C1180.85 131.58 1181.04 131.888 1181.22 132.386C1181.4 132.895 1181.38 133.757 1181.38 133.757C1181.38 133.757 1180.61 134.171 1180.07 134.26C1179.55 134.348 1179.19 134.331 1178.67 134.221C1177.97 134.072 1177.61 133.871 1177.05 133.431C1176.53 133.03 1176.27 132.729 1175.96 132.151C1175.61 131.487 1175.52 130.304 1175.52 130.304ZM1160.48 134.848C1159.83 135.234 1159.11 136.207 1159.11 136.207C1159.11 136.207 1159.78 137.187 1160.42 137.585C1160.98 137.93 1161.35 138.063 1162 138.151C1162.71 138.247 1163.12 138.244 1163.8 138.021C1164.31 137.857 1164.63 137.692 1165.04 137.355C1165.45 137.012 1165.92 136.265 1165.92 136.265C1165.92 136.265 1165.5 135.512 1165.09 135.161C1164.69 134.817 1164.37 134.646 1163.87 134.473C1163.19 134.238 1162.78 134.227 1162.07 134.311C1161.41 134.387 1161.04 134.513 1160.48 134.848ZM1175.46 150.754C1175.46 150.754 1174.71 149.806 1174.5 149.082C1174.32 148.452 1174.3 148.056 1174.39 147.408C1174.5 146.697 1174.61 146.305 1175.01 145.709C1175.31 145.271 1175.56 145.008 1176 144.709C1176.44 144.404 1177.28 144.195 1177.28 144.195C1177.28 144.195 1177.88 144.837 1178.1 145.328C1178.32 145.808 1178.4 146.162 1178.43 146.69C1178.46 147.408 1178.36 147.804 1178.08 148.467C1177.83 149.071 1177.61 149.398 1177.13 149.846C1176.58 150.36 1175.46 150.754 1175.46 150.754ZM1148.24 124.599C1148.44 125.323 1149.19 126.271 1149.19 126.271C1149.19 126.271 1150.31 125.877 1150.86 125.363C1151.34 124.915 1151.57 124.588 1151.82 123.984C1152.1 123.321 1152.2 122.925 1152.16 122.207C1152.13 121.679 1152.06 121.325 1151.84 120.844C1151.61 120.354 1151.01 119.712 1151.01 119.712C1151.01 119.712 1150.18 119.921 1149.73 120.226C1149.3 120.525 1149.05 120.788 1148.75 121.226C1148.35 121.822 1148.23 122.214 1148.13 122.925C1148.03 123.573 1148.06 123.969 1148.24 124.599ZM1182.14 120.039C1182.14 120.039 1181.38 119.091 1181.18 118.367C1181 117.737 1180.97 117.341 1181.07 116.693C1181.17 115.981 1181.29 115.59 1181.69 114.994C1181.99 114.556 1182.24 114.293 1182.67 113.994C1183.12 113.689 1183.95 113.48 1183.95 113.48C1183.95 113.48 1184.55 114.122 1184.78 114.612C1185 115.093 1185.07 115.447 1185.1 115.975C1185.14 116.693 1185.04 117.089 1184.76 117.752C1184.51 118.356 1184.28 118.683 1183.81 119.13C1183.26 119.645 1182.14 120.039 1182.14 120.039Z" fill="#FF5050"/>
<circle cx="827.223" cy="433" r="14" fill="#FF3395"/>
<circle cx="855.223" cy="80" r="14" fill="#FF3395"/>
<circle cx="1040.22" cy="335" r="14" fill="#FF3395"/>
<circle cx="1232.22" cy="79" r="14" fill="#FF3395"/>
<circle cx="1618.22" cy="81" r="14" fill="#FF3395"/>
<circle cx="1545.22" cy="347" r="14" fill="#FF3395"/>
<circle cx="1783.22" cy="303" r="14" fill="#FF3395"/>
<circle cx="750.723" cy="247.5" r="8.5" fill="#FF3395"/>
<circle cx="566.723" cy="74.5" r="8.5" fill="#FF3395"/>
<circle cx="331.723" cy="275.5" r="8.5" fill="#FF3395"/>
<circle cx="205.723" cy="410.5" r="8.5" fill="#FF3395"/>
<circle cx="412.723" cy="376.5" r="8.5" fill="#FF3395"/>
<circle cx="755.723" cy="361.5" r="8.5" fill="#FF3395"/>
<circle cx="1024.72" cy="158.5" r="8.5" fill="#FF3395"/>
<circle cx="944.723" cy="392.5" r="8.5" fill="#FF3395"/>
<circle cx="1432.72" cy="116.5" r="8.5" fill="#FF3395"/>
<circle cx="1255.72" cy="167.5" r="8.5" fill="#FF3395"/>
<circle cx="1393.72" cy="333.5" r="8.5" fill="#FF3395"/>
<circle cx="1464.72" cy="157.5" r="8.5" fill="#FF3395"/>
<circle cx="1858.72" cy="83.5" r="8.5" fill="#FF3395"/>
<circle cx="1759.72" cy="410.5" r="8.5" fill="#FF3395"/>
<circle cx="1455.72" cy="65.5" r="8.5" fill="#FF3395"/>
<circle cx="276.723" cy="71.5" r="13.5" fill="#FF3395"/>
<circle cx="488.723" cy="166.5" r="13.5" fill="#FF3395"/>
<circle cx="40.7228" cy="80.5" r="13.5" fill="#FF3395"/>
<circle cx="26.7228" cy="428.5" r="13.5" fill="#FF3395"/>
</svg>
