<svg width="192" height="61" viewBox="0 0 192 61" fill="none" xmlns="http://www.w3.org/2000/svg">
<path d="M21.6624 50.3295C20.9419 50.3295 20.3655 50.1373 19.9333 49.7531C19.501 49.3689 19.2849 48.8405 19.2849 48.1681V33.3267C19.2849 30.5409 20.0774 28.3555 21.6624 26.7705C23.2474 25.1855 25.4328 24.393 28.2185 24.393C29.5634 24.393 30.8242 24.7292 32.0009 25.4016C33.2017 26.0501 34.2343 26.9867 35.0989 28.2114C35.9394 26.9626 36.9481 26.014 38.1248 25.3656C39.3256 24.7172 40.6224 24.393 42.0153 24.393C44.8011 24.393 46.9864 25.1855 48.5714 26.7705C50.1565 28.3555 50.949 30.5409 50.949 33.3267V48.1681C50.949 48.8165 50.7208 49.3448 50.2645 49.7531C49.8322 50.1373 49.2559 50.3295 48.5354 50.3295C47.815 50.3295 47.2386 50.1373 46.8063 49.7531C46.3741 49.3689 46.1579 48.8405 46.1579 48.1681V33.3267C46.1579 31.5015 45.8217 30.1927 45.1493 29.4002C44.4768 28.5837 43.3721 28.1754 41.8352 28.1754C40.4423 28.1754 39.3616 28.6197 38.5931 29.5083C37.8486 30.3968 37.4764 31.6696 37.4764 33.3267V48.1681C37.4764 48.8405 37.2603 49.3689 36.828 49.7531C36.3957 50.1373 35.8194 50.3295 35.0989 50.3295C34.3784 50.3295 33.8021 50.1373 33.3698 49.7531C32.9615 49.3689 32.7574 48.8405 32.7574 48.1681V33.3267C32.7574 31.7177 32.3732 30.4569 31.6047 29.5443C30.8362 28.6317 29.7675 28.1754 28.3986 28.1754C26.8617 28.1754 25.757 28.5837 25.0845 29.4002C24.4121 30.1927 24.0759 31.5015 24.0759 33.3267V48.1681C24.0759 48.8165 23.8478 49.3448 23.3915 49.7531C22.9592 50.1373 22.3828 50.3295 21.6624 50.3295ZM64.4651 50.3295C62.3998 50.3295 60.5987 49.9572 59.0617 49.2128C57.5247 48.4683 56.336 47.4236 55.4954 46.0788C54.6789 44.7099 54.2707 43.1129 54.2707 41.2877C54.2707 38.3339 55.1232 36.0404 56.8283 34.4074C58.5574 32.7743 60.9829 31.9578 64.1049 31.9578C66.0261 31.9578 67.7192 32.258 69.1841 32.8584C70.6731 33.4588 71.8258 34.2993 72.6423 35.38C73.4828 36.4366 73.9031 37.6494 73.9031 39.0183C73.9031 40.171 73.5309 41.0596 72.7864 41.684C72.0659 42.3084 71.0333 42.6206 69.6884 42.6206H58.8456C58.8456 43.9654 59.3139 44.9861 60.2504 45.6825C61.2111 46.3549 62.616 46.6912 64.4651 46.6912C66.4104 46.6912 68.0674 46.2589 69.4363 45.3943C70.2048 44.914 70.8051 44.6739 71.2374 44.6739C71.6457 44.6739 72.0419 44.866 72.4262 45.2502C72.8344 45.6585 73.0386 46.1028 73.0386 46.5831C73.0386 47.1595 72.7984 47.6157 72.3181 47.952C71.3095 48.7204 70.1327 49.3088 68.7879 49.7171C67.443 50.1253 66.0021 50.3295 64.4651 50.3295ZM68.2475 39.3065C68.6558 39.3065 68.944 39.2344 69.1121 39.0903C69.2802 38.9222 69.3642 38.6581 69.3642 38.2978C69.3642 37.4573 68.8839 36.7969 67.9233 36.3166C66.9867 35.8363 65.7139 35.5961 64.1049 35.5961C62.4959 35.5961 61.2231 35.9323 60.2865 36.6048C59.3739 37.2772 58.9176 38.1778 58.9176 39.3065H68.2475ZM83.1537 50.3295C81.6647 50.3295 80.3439 50.0773 79.1912 49.573C78.0624 49.0687 77.1739 48.3722 76.5255 47.4837C75.9011 46.5711 75.5889 45.5264 75.5889 44.3497C75.5889 42.5725 76.3213 41.1556 77.7863 40.099C79.2752 39.0423 81.2805 38.514 83.8021 38.514C85.9875 38.514 87.7406 38.9823 89.0614 39.9189V39.0543C89.0614 37.9256 88.7132 37.061 88.0168 36.4607C87.3203 35.8603 86.3117 35.5601 84.9908 35.5601C83.0216 35.5601 81.3285 35.9804 79.9116 36.8209C79.3112 37.1571 78.7949 37.3252 78.3626 37.3252C77.8343 37.3252 77.366 37.0851 76.9577 36.6048C76.6936 36.2685 76.5615 35.9203 76.5615 35.5601C76.5615 34.9597 76.8737 34.4314 77.4981 33.9751C78.3626 33.3507 79.4553 32.8584 80.7762 32.4981C82.097 32.1379 83.4899 31.9578 84.9548 31.9578C87.7406 31.9578 89.926 32.5942 91.511 33.867C93.12 35.1158 93.9245 36.8449 93.9245 39.0543V48.3122C93.9245 48.9366 93.7084 49.4289 93.2761 49.7891C92.8678 50.1494 92.3035 50.3295 91.583 50.3295C90.8385 50.3295 90.2622 50.1614 89.8539 49.8251C89.4457 49.4889 89.2415 49.0086 89.2415 48.3842V47.988C87.8727 49.549 85.8434 50.3295 83.1537 50.3295ZM84.2704 47.0154C85.7833 47.0154 86.9601 46.7872 87.8006 46.3309C88.6652 45.8506 89.0974 45.1902 89.0974 44.3497C89.0974 43.5572 88.6652 42.9208 87.8006 42.4405C86.9361 41.9602 85.7833 41.72 84.3424 41.72C83.0456 41.72 82.037 41.9481 81.3165 42.4044C80.6201 42.8607 80.2718 43.5091 80.2718 44.3497C80.2718 45.1902 80.6201 45.8506 81.3165 46.3309C82.0129 46.7872 82.9976 47.0154 84.2704 47.0154ZM100.118 50.3295C99.3737 50.3295 98.7973 50.1373 98.3891 49.7531C97.9808 49.3689 97.7767 48.8405 97.7767 48.1681V24.7893C97.7767 24.1168 97.9808 23.5885 98.3891 23.2043C98.7973 22.82 99.3737 22.6279 100.118 22.6279C100.839 22.6279 101.415 22.82 101.847 23.2043C102.28 23.5885 102.496 24.1168 102.496 24.7893V48.1681C102.496 48.8405 102.28 49.3689 101.847 49.7531C101.415 50.1373 100.839 50.3295 100.118 50.3295Z" fill="#FFAA00"/>
<path d="M115.093 50.3295C113.748 50.3295 112.667 49.9212 111.851 49.1047C111.058 48.2642 110.494 46.9553 110.158 45.1782L106.591 26.8426C106.543 26.5544 106.519 26.3502 106.519 26.2302C106.519 25.6298 106.711 25.1735 107.096 24.8613C107.504 24.5491 108.056 24.393 108.753 24.393C110.194 24.393 111.034 25.0294 111.274 26.3022L114.696 45.5744C114.793 45.9587 114.877 46.2229 114.949 46.367C115.021 46.487 115.117 46.5471 115.237 46.5471C115.525 46.5471 115.705 46.2349 115.777 45.6105L118.047 28.3555C118.215 27.1067 118.671 26.1341 119.415 25.4377C120.184 24.7412 121.157 24.393 122.333 24.393C123.51 24.393 124.471 24.7412 125.215 25.4377C125.984 26.1341 126.452 27.1067 126.62 28.3555L128.889 45.6105C128.962 46.2349 129.142 46.5471 129.43 46.5471C129.55 46.5471 129.646 46.487 129.718 46.367C129.79 46.2229 129.874 45.9587 129.97 45.5744L133.392 26.3022C133.632 25.0294 134.473 24.393 135.914 24.393C136.61 24.393 137.151 24.5491 137.535 24.8613C137.943 25.1735 138.147 25.6298 138.147 26.2302C138.147 26.3502 138.123 26.5544 138.075 26.8426L134.509 45.1782C134.173 46.9553 133.596 48.2642 132.78 49.1047C131.987 49.9212 130.919 50.3295 129.574 50.3295C128.229 50.3295 127.184 49.9212 126.44 49.1047C125.695 48.2882 125.203 47.0154 124.963 45.2863L122.838 29.148C122.79 28.7878 122.73 28.5356 122.658 28.3915C122.585 28.2475 122.477 28.1754 122.333 28.1754C122.189 28.1754 122.081 28.2475 122.009 28.3915C121.937 28.5356 121.877 28.7878 121.829 29.148L119.704 45.2863C119.463 47.0154 118.971 48.2882 118.227 49.1047C117.482 49.9212 116.438 50.3295 115.093 50.3295ZM144.405 29.7244C143.517 29.7244 142.796 29.4842 142.244 29.0039C141.716 28.4996 141.452 27.8512 141.452 27.0587C141.452 26.2662 141.716 25.6298 142.244 25.1495C142.796 24.6452 143.517 24.393 144.405 24.393C145.294 24.393 146.015 24.6452 146.567 25.1495C147.143 25.6298 147.431 26.2662 147.431 27.0587C147.431 27.8512 147.143 28.4996 146.567 29.0039C146.015 29.4842 145.294 29.7244 144.405 29.7244ZM144.442 50.3295C143.697 50.3295 143.121 50.1373 142.712 49.7531C142.304 49.3689 142.1 48.8405 142.1 48.1681V34.1192C142.1 33.4468 142.304 32.9184 142.712 32.5342C143.121 32.1499 143.697 31.9578 144.442 31.9578C145.162 31.9578 145.738 32.1499 146.171 32.5342C146.603 32.9184 146.819 33.4468 146.819 34.1192V48.1681C146.819 48.8405 146.603 49.3689 146.171 49.7531C145.738 50.1373 145.162 50.3295 144.442 50.3295ZM159.492 50.3295C155.626 50.3295 152.78 49.2128 150.955 46.9793C150.571 46.475 150.379 46.0187 150.379 45.6105C150.379 45.0341 150.679 44.5298 151.279 44.0975C151.687 43.8333 152.084 43.7013 152.468 43.7013C152.996 43.7013 153.488 43.9294 153.945 44.3857C154.761 45.2022 155.554 45.7906 156.322 46.1508C157.115 46.487 158.087 46.6551 159.24 46.6551C160.225 46.6551 161.053 46.5231 161.726 46.2589C162.398 45.9947 162.734 45.6705 162.734 45.2863C162.734 44.806 162.458 44.3977 161.906 44.0615C161.353 43.7253 160.237 43.293 158.556 42.7647C155.914 41.9481 154.041 41.0956 152.936 40.207C151.831 39.2945 151.279 38.1657 151.279 36.8209C151.279 35.3079 151.928 34.1192 153.224 33.2546C154.521 32.3901 156.31 31.9578 158.592 31.9578C160.345 31.9578 161.93 32.222 163.347 32.7503C164.764 33.2786 165.796 33.9871 166.445 34.8757C166.757 35.2839 166.913 35.6922 166.913 36.1004C166.913 36.6768 166.625 37.1451 166.048 37.5053C165.64 37.7695 165.22 37.9016 164.788 37.9016C164.091 37.9016 163.455 37.6134 162.878 37.037C162.398 36.5807 161.774 36.2325 161.005 35.9924C160.261 35.7522 159.444 35.6321 158.556 35.6321C156.875 35.6321 156.034 36.0284 156.034 36.8209C156.034 37.1331 156.166 37.4093 156.43 37.6494C156.695 37.8896 157.163 38.1417 157.835 38.4059C158.532 38.6701 159.612 39.0303 161.077 39.4866C163.431 40.207 165.076 40.9995 166.012 41.8641C166.973 42.7286 167.453 43.8694 167.453 45.2863C167.453 46.7992 166.757 48.024 165.364 48.9606C163.971 49.8732 162.014 50.3295 159.492 50.3295ZM180.238 50.3295C178.173 50.3295 176.371 49.9572 174.834 49.2128C173.297 48.4683 172.109 47.4236 171.268 46.0788C170.452 44.7099 170.043 43.1129 170.043 41.2877C170.043 38.3339 170.896 36.0404 172.601 34.4074C174.33 32.7743 176.756 31.9578 179.878 31.9578C181.799 31.9578 183.492 32.258 184.957 32.8584C186.446 33.4588 187.598 34.2993 188.415 35.38C189.256 36.4366 189.676 37.6494 189.676 39.0183C189.676 40.171 189.304 41.0596 188.559 41.684C187.839 42.3084 186.806 42.6206 185.461 42.6206H174.618C174.618 43.9654 175.087 44.9861 176.023 45.6825C176.984 46.3549 178.389 46.6912 180.238 46.6912C182.183 46.6912 183.84 46.2589 185.209 45.3943C185.977 44.914 186.578 44.6739 187.01 44.6739C187.418 44.6739 187.815 44.866 188.199 45.2502C188.607 45.6585 188.811 46.1028 188.811 46.5831C188.811 47.1595 188.571 47.6157 188.091 47.952C187.082 48.7204 185.905 49.3088 184.561 49.7171C183.216 50.1253 181.775 50.3295 180.238 50.3295ZM184.02 39.3065C184.428 39.3065 184.717 39.2344 184.885 39.0903C185.053 38.9222 185.137 38.6581 185.137 38.2978C185.137 37.4573 184.657 36.7969 183.696 36.3166C182.759 35.8363 181.487 35.5961 179.878 35.5961C178.269 35.5961 176.996 35.9323 176.059 36.6048C175.147 37.2772 174.69 38.1778 174.69 39.3065H184.02Z" fill="#FF3395"/>
<g clip-path="url(#clip0_3_2221)">
<path d="M28.7156 19.5522C27.8063 20.5036 26.6516 21.1852 25.3793 21.5218C24.312 21.7987 23.2006 21.863 22.1085 21.7111C21.6385 22.981 21.5759 24.3658 21.9294 25.6729L22.8244 29.0132C22.858 29.1373 22.8657 29.267 22.847 29.3943C22.8283 29.5215 22.7836 29.6435 22.7158 29.7528C22.648 29.862 22.5584 29.9562 22.4526 30.0294C22.3469 30.1025 22.2272 30.1532 22.1011 30.1782C21.8627 30.2203 21.6173 30.1708 21.4139 30.0395C21.2106 29.9083 21.0643 29.705 21.0046 29.4704L20.627 28.0614L15.0806 24.8592C14.4953 25.276 13.8416 25.5872 13.149 25.7785C12.1942 26.0369 11.1867 26.0267 10.2373 25.749C7.36738 24.9107 5.11402 21.8155 4.22301 17.4617C4.17655 17.2366 4.21439 17.0022 4.32933 16.8031C4.44428 16.604 4.62833 16.4541 4.84654 16.3817C9.06372 14.981 12.8697 15.3803 15.0262 17.4478C15.8728 18.2578 16.4327 19.3214 16.6211 20.4779C16.6374 20.567 16.6276 20.659 16.5928 20.7426C16.558 20.8263 16.4997 20.8981 16.4249 20.9493C16.3502 21.0005 16.2622 21.029 16.1716 21.0313C16.081 21.0336 15.9917 21.0096 15.9144 20.9622L13.1297 19.2683C12.9148 19.1514 12.6627 19.1231 12.4272 19.1895C12.1918 19.2558 11.9915 19.4115 11.8692 19.6234C11.7469 19.8352 11.7122 20.0865 11.7724 20.3236C11.8327 20.5607 11.9832 20.7649 12.1919 20.8926L19.9715 25.5153C19.9546 25.4251 19.9389 25.3347 19.9246 25.245C19.6726 23.5119 19.9934 21.7439 20.8383 20.2098L24.9459 12.6192C25.0704 12.4038 25.1043 12.1477 25.04 11.9073C24.9757 11.6669 24.8185 11.462 24.6031 11.3374C24.3877 11.2129 24.1316 11.1791 23.8912 11.2434C23.6508 11.3077 23.4458 11.4648 23.3213 11.6803L19.344 19.0369C19.3042 19.1106 19.2454 19.1723 19.1737 19.2156C19.102 19.2589 19.02 19.2823 18.9362 19.2831C18.8524 19.284 18.7699 19.2625 18.6973 19.2207C18.6247 19.1789 18.5646 19.1184 18.5232 19.0456C17.4558 17.2095 17.1645 15.1753 17.7361 13.2084C18.8644 9.32726 23.0928 6.27859 29.0477 5.05202C29.2729 5.00557 29.5072 5.04341 29.7063 5.15835C29.9054 5.2733 30.0554 5.45734 30.1277 5.67556C32.0387 11.4483 31.5127 16.6346 28.7156 19.5522Z" fill="#FFAA00"/>
</g>
<defs>
<clipPath id="clip0_3_2221">
<rect width="30.0191" height="30.0191" fill="white" transform="translate(0.621887 7.76929) rotate(-15)"/>
</clipPath>
</defs>
</svg>
