<svg width="277" height="182" viewBox="0 0 277 182" fill="none" xmlns="http://www.w3.org/2000/svg">
<rect width="277" height="182" fill="#D9E8FF"/>
<path d="M175.518 54.5776H102.577C100.819 54.5776 99.1322 55.2763 97.8886 56.5198C96.6451 57.7634 95.9465 59.45 95.9465 61.2086V120.887C95.9465 122.646 96.6451 124.333 97.8886 125.576C99.1322 126.82 100.819 127.518 102.577 127.518H175.518C177.277 127.518 178.963 126.82 180.207 125.576C181.451 124.333 182.149 122.646 182.149 120.887V61.2086C182.149 59.45 181.451 57.7634 180.207 56.5198C178.963 55.2763 177.277 54.5776 175.518 54.5776ZM150.652 74.4706C151.636 74.4706 152.597 74.7622 153.415 75.3087C154.233 75.8552 154.87 76.6319 155.247 77.5406C155.623 78.4494 155.722 79.4493 155.53 80.414C155.338 81.3788 154.864 82.2649 154.169 82.9604C153.473 83.6559 152.587 84.1296 151.622 84.3215C150.658 84.5134 149.658 84.4149 148.749 84.0385C147.84 83.6621 147.063 83.0246 146.517 82.2068C145.97 81.3889 145.679 80.4274 145.679 79.4438C145.679 78.1248 146.203 76.8599 147.135 75.9272C148.068 74.9945 149.333 74.4706 150.652 74.4706ZM175.518 120.887H102.577V104.596L121.782 85.3868C122.09 85.0786 122.456 84.834 122.859 84.6672C123.261 84.5003 123.692 84.4144 124.128 84.4144C124.564 84.4144 124.995 84.5003 125.398 84.6672C125.8 84.834 126.166 85.0786 126.474 85.3868L154.382 113.287C155.004 113.909 155.848 114.258 156.728 114.258C157.608 114.258 158.451 113.909 159.073 113.287C159.696 112.665 160.045 111.821 160.045 110.941C160.045 110.061 159.696 109.217 159.073 108.595L151.754 101.28L157.697 95.3333C158.319 94.712 159.162 94.363 160.041 94.363C160.92 94.363 161.763 94.712 162.385 95.3333L175.518 108.483V120.887Z" fill="#3384FF"/>
</svg>
