<svg width="21" height="21" viewBox="0 0 21 21" fill="none" xmlns="http://www.w3.org/2000/svg">
<path d="M7.00904 17.0813C6.76904 17.0813 6.57704 17.0173 6.43304 16.8893C6.28904 16.7613 6.21704 16.5853 6.21704 16.3613V11.4173C6.21704 10.4893 6.48104 9.7613 7.00904 9.2333C7.53704 8.7053 8.26504 8.4413 9.19304 8.4413C9.64104 8.4413 10.061 8.5533 10.453 8.7773C10.853 8.9933 11.197 9.3053 11.485 9.7133C11.765 9.2973 12.101 8.9813 12.493 8.7653C12.893 8.5493 13.325 8.4413 13.789 8.4413C14.717 8.4413 15.445 8.7053 15.973 9.2333C16.501 9.7613 16.765 10.4893 16.765 11.4173V16.3613C16.765 16.5773 16.689 16.7533 16.537 16.8893C16.393 17.0173 16.201 17.0813 15.961 17.0813C15.721 17.0813 15.529 17.0173 15.385 16.8893C15.241 16.7613 15.169 16.5853 15.169 16.3613V11.4173C15.169 10.8093 15.057 10.3733 14.833 10.1093C14.609 9.8373 14.241 9.7013 13.729 9.7013C13.265 9.7013 12.905 9.8493 12.649 10.1453C12.401 10.4413 12.277 10.8653 12.277 11.4173V16.3613C12.277 16.5853 12.205 16.7613 12.061 16.8893C11.917 17.0173 11.725 17.0813 11.485 17.0813C11.245 17.0813 11.053 17.0173 10.909 16.8893C10.773 16.7613 10.705 16.5853 10.705 16.3613V11.4173C10.705 10.8813 10.577 10.4613 10.321 10.1573C10.065 9.8533 9.70904 9.7013 9.25304 9.7013C8.74104 9.7013 8.37304 9.8373 8.14904 10.1093C7.92504 10.3733 7.81304 10.8093 7.81304 11.4173V16.3613C7.81304 16.5773 7.73704 16.7533 7.58504 16.8893C7.44104 17.0173 7.24904 17.0813 7.00904 17.0813Z" fill="#FF3395"/>
<g clip-path="url(#clip0_1_13)">
<path d="M9.35861 7.15429C9.05568 7.47123 8.67105 7.69829 8.2472 7.81039C7.89166 7.90264 7.52145 7.92407 7.15764 7.87345C7.00106 8.29648 6.9802 8.7578 7.09797 9.19323L7.39612 10.3059C7.4073 10.3473 7.40986 10.3905 7.40363 10.4329C7.39741 10.4753 7.38253 10.5159 7.35994 10.5523C7.33734 10.5887 7.3075 10.6201 7.27227 10.6445C7.23704 10.6688 7.19718 10.6857 7.15515 10.694C7.07576 10.7081 6.99399 10.6916 6.92625 10.6478C6.85851 10.6041 6.8098 10.5364 6.78989 10.4583L6.66412 9.98888L4.81648 8.92215C4.62152 9.061 4.40375 9.16466 4.17304 9.22841C3.85497 9.31448 3.51932 9.31108 3.20307 9.21858C2.24704 8.93931 1.4964 7.90823 1.19958 6.4579C1.18411 6.38289 1.19671 6.30482 1.235 6.2385C1.27329 6.17218 1.3346 6.12223 1.40729 6.09813C2.81213 5.63152 4.08 5.76455 4.79835 6.45326C5.08038 6.72309 5.26688 7.07741 5.32965 7.46264C5.3351 7.49234 5.33182 7.52297 5.32022 7.55084C5.30862 7.57871 5.2892 7.60262 5.2643 7.61969C5.2394 7.63676 5.21009 7.64624 5.17991 7.64701C5.14974 7.64777 5.11998 7.63978 5.09425 7.62399L4.16659 7.0597C4.095 7.02077 4.01103 7.01136 3.93259 7.03345C3.85414 7.05555 3.78744 7.10742 3.74669 7.178C3.70594 7.24857 3.69438 7.33227 3.71446 7.41126C3.73454 7.49024 3.78469 7.55825 3.8542 7.60079L6.44575 9.14072C6.44013 9.11068 6.43489 9.08054 6.43012 9.05068C6.34617 8.47334 6.45304 7.88438 6.73449 7.37335L8.10284 4.84475C8.14431 4.77298 8.15558 4.68768 8.13417 4.60761C8.11275 4.52753 8.0604 4.45924 7.98863 4.41777C7.91686 4.37629 7.83156 4.36502 7.75149 4.38644C7.67141 4.40786 7.60312 4.46021 7.56165 4.53198L6.23671 6.98262C6.22346 7.00718 6.20387 7.02774 6.17998 7.04217C6.15609 7.05659 6.12877 7.06436 6.10086 7.06465C6.07295 7.06495 6.04547 7.05777 6.02128 7.04385C5.99709 7.02993 5.97707 7.00978 5.9633 6.98551C5.60773 6.37389 5.51067 5.69623 5.7011 5.04102C6.07693 3.74813 7.48552 2.73255 9.46923 2.32396C9.54423 2.30848 9.62231 2.32109 9.68863 2.35938C9.75495 2.39767 9.8049 2.45898 9.829 2.53167C10.4656 4.4547 10.2904 6.18236 9.35861 7.15429Z" fill="#FF3395"/>
</g>
<defs>
<clipPath id="clip0_1_13">
<rect width="10" height="10" fill="white" transform="translate(0 3.22906) rotate(-15)"/>
</clipPath>
</defs>
</svg>
