<svg width="191" height="61" viewBox="0 0 191 61" fill="none" xmlns="http://www.w3.org/2000/svg">
<path d="M21.0405 50.3295C20.32 50.3295 19.7437 50.1373 19.3114 49.7531C18.8791 49.3689 18.663 48.8405 18.663 48.1681V33.3267C18.663 30.5409 19.4555 28.3555 21.0405 26.7705C22.6255 25.1855 24.8109 24.393 27.5966 24.393C28.9415 24.393 30.2023 24.7292 31.379 25.4016C32.5798 26.0501 33.6125 26.9867 34.477 28.2114C35.3175 26.9626 36.3262 26.014 37.5029 25.3656C38.7037 24.7172 40.0005 24.393 41.3934 24.393C44.1792 24.393 46.3646 25.1855 47.9496 26.7705C49.5346 28.3555 50.3271 30.5409 50.3271 33.3267V48.1681C50.3271 48.8165 50.0989 49.3448 49.6426 49.7531C49.2104 50.1373 48.634 50.3295 47.9135 50.3295C47.1931 50.3295 46.6167 50.1373 46.1844 49.7531C45.7522 49.3689 45.536 48.8405 45.536 48.1681V33.3267C45.536 31.5015 45.1998 30.1927 44.5274 29.4002C43.855 28.5837 42.7503 28.1754 41.2133 28.1754C39.8204 28.1754 38.7397 28.6197 37.9712 29.5083C37.2268 30.3968 36.8545 31.6696 36.8545 33.3267V48.1681C36.8545 48.8405 36.6384 49.3689 36.2061 49.7531C35.7738 50.1373 35.1975 50.3295 34.477 50.3295C33.7566 50.3295 33.1802 50.1373 32.7479 49.7531C32.3397 49.3689 32.1355 48.8405 32.1355 48.1681V33.3267C32.1355 31.7177 31.7513 30.4569 30.9828 29.5443C30.2143 28.6317 29.1456 28.1754 27.7768 28.1754C26.2398 28.1754 25.1351 28.5837 24.4627 29.4002C23.7902 30.1927 23.454 31.5015 23.454 33.3267V48.1681C23.454 48.8165 23.2259 49.3448 22.7696 49.7531C22.3373 50.1373 21.7609 50.3295 21.0405 50.3295ZM63.8432 50.3295C61.7779 50.3295 59.9768 49.9572 58.4398 49.2128C56.9028 48.4683 55.7141 47.4236 54.8736 46.0788C54.057 44.7099 53.6488 43.1129 53.6488 41.2877C53.6488 38.3339 54.5013 36.0404 56.2064 34.4074C57.9355 32.7743 60.361 31.9578 63.483 31.9578C65.4042 31.9578 67.0973 32.258 68.5622 32.8584C70.0512 33.4588 71.2039 34.2993 72.0204 35.38C72.861 36.4366 73.2812 37.6494 73.2812 39.0183C73.2812 40.171 72.909 41.0596 72.1645 41.684C71.4441 42.3084 70.4114 42.6206 69.0666 42.6206H58.2237C58.2237 43.9654 58.692 44.9861 59.6286 45.6825C60.5892 46.3549 61.9941 46.6912 63.8432 46.6912C65.7885 46.6912 67.4455 46.2589 68.8144 45.3943C69.5829 44.914 70.1833 44.6739 70.6155 44.6739C71.0238 44.6739 71.4201 44.866 71.8043 45.2502C72.2126 45.6585 72.4167 46.1028 72.4167 46.5831C72.4167 47.1595 72.1765 47.6157 71.6962 47.952C70.6876 48.7204 69.5108 49.3088 68.166 49.7171C66.8211 50.1253 65.3802 50.3295 63.8432 50.3295ZM67.6256 39.3065C68.0339 39.3065 68.3221 39.2344 68.4902 39.0903C68.6583 38.9222 68.7424 38.6581 68.7424 38.2978C68.7424 37.4573 68.262 36.7969 67.3014 36.3166C66.3648 35.8363 65.092 35.5961 63.483 35.5961C61.874 35.5961 60.6012 35.9323 59.6646 36.6048C58.752 37.2772 58.2957 38.1778 58.2957 39.3065H67.6256ZM82.5318 50.3295C81.0428 50.3295 79.722 50.0773 78.5693 49.573C77.4406 49.0687 76.552 48.3722 75.9036 47.4837C75.2792 46.5711 74.967 45.5264 74.967 44.3497C74.967 42.5725 75.6995 41.1556 77.1644 40.099C78.6533 39.0423 80.6586 38.514 83.1802 38.514C85.3656 38.514 87.1187 38.9823 88.4395 39.9189V39.0543C88.4395 37.9256 88.0913 37.061 87.3949 36.4607C86.6984 35.8603 85.6898 35.5601 84.369 35.5601C82.3997 35.5601 80.7066 35.9804 79.2897 36.8209C78.6894 37.1571 78.173 37.3252 77.7407 37.3252C77.2124 37.3252 76.7441 37.0851 76.3359 36.6048C76.0717 36.2685 75.9396 35.9203 75.9396 35.5601C75.9396 34.9597 76.2518 34.4314 76.8762 33.9751C77.7407 33.3507 78.8334 32.8584 80.1543 32.4981C81.4751 32.1379 82.868 31.9578 84.3329 31.9578C87.1187 31.9578 89.3041 32.5942 90.8891 33.867C92.4981 35.1158 93.3026 36.8449 93.3026 39.0543V48.3122C93.3026 48.9366 93.0865 49.4289 92.6542 49.7891C92.246 50.1494 91.6816 50.3295 90.9611 50.3295C90.2167 50.3295 89.6403 50.1614 89.232 49.8251C88.8238 49.4889 88.6197 49.0086 88.6197 48.3842V47.988C87.2508 49.549 85.2215 50.3295 82.5318 50.3295ZM83.6485 47.0154C85.1615 47.0154 86.3382 46.7872 87.1787 46.3309C88.0433 45.8506 88.4756 45.1902 88.4756 44.3497C88.4756 43.5572 88.0433 42.9208 87.1787 42.4405C86.3142 41.9602 85.1615 41.72 83.7205 41.72C82.4237 41.72 81.4151 41.9481 80.6946 42.4044C79.9982 42.8607 79.65 43.5091 79.65 44.3497C79.65 45.1902 79.9982 45.8506 80.6946 46.3309C81.3911 46.7872 82.3757 47.0154 83.6485 47.0154ZM99.4963 50.3295C98.7518 50.3295 98.1755 50.1373 97.7672 49.7531C97.359 49.3689 97.1548 48.8405 97.1548 48.1681V24.7893C97.1548 24.1168 97.359 23.5885 97.7672 23.2043C98.1755 22.82 98.7518 22.6279 99.4963 22.6279C100.217 22.6279 100.793 22.82 101.225 23.2043C101.658 23.5885 101.874 24.1168 101.874 24.7893V48.1681C101.874 48.8405 101.658 49.3689 101.225 49.7531C100.793 50.1373 100.217 50.3295 99.4963 50.3295Z" fill="#FFAA00"/>
<path d="M114.471 50.3295C113.126 50.3295 112.045 49.9212 111.229 49.1047C110.436 48.2642 109.872 46.9553 109.536 45.1782L105.969 26.8426C105.921 26.5544 105.897 26.3502 105.897 26.2302C105.897 25.6298 106.09 25.1735 106.474 24.8613C106.882 24.5491 107.434 24.393 108.131 24.393C109.572 24.393 110.412 25.0294 110.652 26.3022L114.075 45.5744C114.171 45.9587 114.255 46.2229 114.327 46.367C114.399 46.487 114.495 46.5471 114.615 46.5471C114.903 46.5471 115.083 46.2349 115.155 45.6105L117.425 28.3555C117.593 27.1067 118.049 26.1341 118.794 25.4377C119.562 24.7412 120.535 24.393 121.711 24.393C122.888 24.393 123.849 24.7412 124.593 25.4377C125.362 26.1341 125.83 27.1067 125.998 28.3555L128.268 45.6105C128.34 46.2349 128.52 46.5471 128.808 46.5471C128.928 46.5471 129.024 46.487 129.096 46.367C129.168 46.2229 129.252 45.9587 129.348 45.5744L132.77 26.3022C133.011 25.0294 133.851 24.393 135.292 24.393C135.988 24.393 136.529 24.5491 136.913 24.8613C137.321 25.1735 137.525 25.6298 137.525 26.2302C137.525 26.3502 137.501 26.5544 137.453 26.8426L133.887 45.1782C133.551 46.9553 132.975 48.2642 132.158 49.1047C131.366 49.9212 130.297 50.3295 128.952 50.3295C127.607 50.3295 126.563 49.9212 125.818 49.1047C125.074 48.2882 124.581 47.0154 124.341 45.2863L122.216 29.148C122.168 28.7878 122.108 28.5356 122.036 28.3915C121.964 28.2475 121.856 28.1754 121.711 28.1754C121.567 28.1754 121.459 28.2475 121.387 28.3915C121.315 28.5356 121.255 28.7878 121.207 29.148L119.082 45.2863C118.842 47.0154 118.349 48.2882 117.605 49.1047C116.86 49.9212 115.816 50.3295 114.471 50.3295ZM143.784 29.7244C142.895 29.7244 142.175 29.4842 141.622 29.0039C141.094 28.4996 140.83 27.8512 140.83 27.0587C140.83 26.2662 141.094 25.6298 141.622 25.1495C142.175 24.6452 142.895 24.393 143.784 24.393C144.672 24.393 145.393 24.6452 145.945 25.1495C146.521 25.6298 146.81 26.2662 146.81 27.0587C146.81 27.8512 146.521 28.4996 145.945 29.0039C145.393 29.4842 144.672 29.7244 143.784 29.7244ZM143.82 50.3295C143.075 50.3295 142.499 50.1373 142.091 49.7531C141.682 49.3689 141.478 48.8405 141.478 48.1681V34.1192C141.478 33.4468 141.682 32.9184 142.091 32.5342C142.499 32.1499 143.075 31.9578 143.82 31.9578C144.54 31.9578 145.116 32.1499 145.549 32.5342C145.981 32.9184 146.197 33.4468 146.197 34.1192V48.1681C146.197 48.8405 145.981 49.3689 145.549 49.7531C145.116 50.1373 144.54 50.3295 143.82 50.3295ZM158.87 50.3295C155.004 50.3295 152.158 49.2128 150.333 46.9793C149.949 46.475 149.757 46.0187 149.757 45.6105C149.757 45.0341 150.057 44.5298 150.657 44.0975C151.065 43.8333 151.462 43.7013 151.846 43.7013C152.374 43.7013 152.867 43.9294 153.323 44.3857C154.139 45.2022 154.932 45.7906 155.7 46.1508C156.493 46.487 157.466 46.6551 158.618 46.6551C159.603 46.6551 160.431 46.5231 161.104 46.2589C161.776 45.9947 162.112 45.6705 162.112 45.2863C162.112 44.806 161.836 44.3977 161.284 44.0615C160.732 43.7253 159.615 43.293 157.934 42.7647C155.292 41.9481 153.419 41.0956 152.314 40.207C151.21 39.2945 150.657 38.1657 150.657 36.8209C150.657 35.3079 151.306 34.1192 152.602 33.2546C153.899 32.3901 155.688 31.9578 157.97 31.9578C159.723 31.9578 161.308 32.222 162.725 32.7503C164.142 33.2786 165.174 33.9871 165.823 34.8757C166.135 35.2839 166.291 35.6922 166.291 36.1004C166.291 36.6768 166.003 37.1451 165.427 37.5053C165.018 37.7695 164.598 37.9016 164.166 37.9016C163.469 37.9016 162.833 37.6134 162.257 37.037C161.776 36.5807 161.152 36.2325 160.383 35.9924C159.639 35.7522 158.822 35.6321 157.934 35.6321C156.253 35.6321 155.412 36.0284 155.412 36.8209C155.412 37.1331 155.544 37.4093 155.808 37.6494C156.073 37.8896 156.541 38.1417 157.213 38.4059C157.91 38.6701 158.99 39.0303 160.455 39.4866C162.809 40.207 164.454 40.9995 165.391 41.8641C166.351 42.7286 166.831 43.8694 166.831 45.2863C166.831 46.7992 166.135 48.024 164.742 48.9606C163.349 49.8732 161.392 50.3295 158.87 50.3295ZM179.616 50.3295C177.551 50.3295 175.749 49.9572 174.213 49.2128C172.676 48.4683 171.487 47.4236 170.646 46.0788C169.83 44.7099 169.421 43.1129 169.421 41.2877C169.421 38.3339 170.274 36.0404 171.979 34.4074C173.708 32.7743 176.134 31.9578 179.256 31.9578C181.177 31.9578 182.87 32.258 184.335 32.8584C185.824 33.4588 186.977 34.2993 187.793 35.38C188.634 36.4366 189.054 37.6494 189.054 39.0183C189.054 40.171 188.682 41.0596 187.937 41.684C187.217 42.3084 186.184 42.6206 184.839 42.6206H173.996C173.996 43.9654 174.465 44.9861 175.401 45.6825C176.362 46.3549 177.767 46.6912 179.616 46.6912C181.561 46.6912 183.218 46.2589 184.587 45.3943C185.356 44.914 185.956 44.6739 186.388 44.6739C186.796 44.6739 187.193 44.866 187.577 45.2502C187.985 45.6585 188.189 46.1028 188.189 46.5831C188.189 47.1595 187.949 47.6157 187.469 47.952C186.46 48.7204 185.284 49.3088 183.939 49.7171C182.594 50.1253 181.153 50.3295 179.616 50.3295ZM183.398 39.3065C183.807 39.3065 184.095 39.2344 184.263 39.0903C184.431 38.9222 184.515 38.6581 184.515 38.2978C184.515 37.4573 184.035 36.7969 183.074 36.3166C182.138 35.8363 180.865 35.5961 179.256 35.5961C177.647 35.5961 176.374 35.9323 175.437 36.6048C174.525 37.2772 174.068 38.1778 174.068 39.3065H183.398Z" fill="#FF3395"/>
<g clip-path="url(#clip0_3_3059)">
<path d="M28.0937 19.5539C27.1844 20.5053 26.0297 21.187 24.7574 21.5235C23.6901 21.8004 22.5787 21.8647 21.4866 21.7128C21.0166 22.9827 20.954 24.3675 21.3075 25.6746L22.2025 29.0149C22.2361 29.139 22.2438 29.2687 22.2251 29.396C22.2064 29.5232 22.1617 29.6452 22.0939 29.7545C22.0261 29.8638 21.9365 29.9579 21.8307 30.0311C21.725 30.1042 21.6053 30.1549 21.4792 30.1799C21.2408 30.222 20.9954 30.1725 20.792 30.0412C20.5886 29.91 20.4424 29.7067 20.3827 29.4721L20.0051 28.0631L14.4587 24.8609C13.8734 25.2777 13.2197 25.5889 12.5271 25.7803C11.5723 26.0386 10.5647 26.0284 9.61538 25.7507C6.74547 24.9124 4.49211 21.8172 3.6011 17.4634C3.55464 17.2383 3.59248 17.0039 3.70742 16.8048C3.82237 16.6057 4.00642 16.4558 4.22463 16.3834C8.44181 14.9827 12.2478 15.382 14.4043 17.4495C15.2509 18.2595 15.8107 19.3231 15.9992 20.4796C16.0155 20.5687 16.0057 20.6607 15.9709 20.7443C15.9361 20.828 15.8777 20.8998 15.803 20.951C15.7283 21.0022 15.6403 21.0307 15.5497 21.033C15.4591 21.0353 15.3698 21.0113 15.2925 20.9639L12.5078 19.27C12.2929 19.1531 12.0408 19.1249 11.8053 19.1912C11.5698 19.2575 11.3696 19.4132 11.2473 19.6251C11.125 19.837 11.0902 20.0882 11.1505 20.3253C11.2108 20.5624 11.3613 20.7666 11.57 20.8943L19.3496 25.517C19.3327 25.4268 19.317 25.3364 19.3027 25.2467C19.0507 23.5136 19.3715 21.7456 20.2164 20.2115L24.324 12.6209C24.4485 12.4055 24.4824 12.1494 24.4181 11.909C24.3538 11.6687 24.1966 11.4637 23.9812 11.3392C23.7657 11.2146 23.5097 11.1808 23.2693 11.2451C23.0289 11.3094 22.8239 11.4666 22.6994 11.682L18.7221 19.0386C18.6823 19.1123 18.6235 19.174 18.5518 19.2173C18.4801 19.2607 18.398 19.284 18.3143 19.2849C18.2305 19.2857 18.148 19.2642 18.0754 19.2224C18.0028 19.1806 17.9427 19.1201 17.9013 19.0473C16.8339 17.2112 16.5426 15.177 17.1142 13.2101C18.2424 9.32897 22.4709 6.2803 28.4258 5.05373C28.651 5.00728 28.8853 5.04512 29.0844 5.16006C29.2835 5.27501 29.4335 5.45905 29.5058 5.67726C31.4168 11.45 30.8908 16.6363 28.0937 19.5539Z" fill="#FFAA00"/>
</g>
<defs>
<clipPath id="clip0_3_3059">
<rect width="30.0191" height="30.0191" fill="white" transform="translate(0 7.77002) rotate(-15)"/>
</clipPath>
</defs>
</svg>
